 <svg xmlns="http://www.w3.org/2000/svg" viewBox="-4.87109375 -5 218.39686584472656 67.29999923706055" fill="none"
     y="202" x="132" preserveAspectRatio="xMinYMin" style="overflow: visible;">
     <path
         d="M197.9 32.4C197.9 31.8 197.5 31.2 196.6 31.1L138.3 24.1C138.1 24.1 137.9 24.2 137.8 24.4V24.6L137.5 25.8V25.9C137.5 26 137.5 26.1 137.4 26.1C137.1 26.9 137 27.8 136.6 28.6C157.3 33.7 172.6 36.1 183.5 36.1C189.4 36.1 193.9 35.3 197 34C197.9 33.6 198 32.9 197.9 32.4ZM177.7 43.7L135.7 30.9C134.8 32.6 133.8 34 132.8 35.2C151.3 42.8 165.3 46.9 173.7 46.9C175.1 46.9 176.4 46.8 177.5 46.6C178.4 46.4 178.6 45.8 178.7 45.3C178.8 44.7 178.5 43.9 177.7 43.7ZM160.2 50.4L131.1 37.1C130.3 37.9 128.6 39 127.7 39.6C127.5 39.7 127.2 39.9 127 40C140.6 47.9 152.7 52.1 159.3 53.2H159.6C160.4 53.2 160.9 52.5 161 52C161.2 51.5 161.1 50.7 160.2 50.4ZM71.0003 26C70.9003 26 70.9003 25.9 70.9003 25.8V25.7L70.6003 24.5V24.3C70.5003 24.1 70.3003 24 70.1003 24L11.8003 31C10.9003 31.1 10.5003 31.7 10.5003 32.3C10.4003 32.8 10.6003 33.5 11.4003 33.8C14.4003 35.2 19.0003 35.9 24.9003 35.9C35.7003 35.9 51.1003 33.4 71.8003 28.4C71.4003 27.7 71.2003 26.8 71.0003 26ZM72.8003 30.9L30.8003 43.7C29.9003 44 29.7003 44.7 29.8003 45.2C29.9003 45.8 30.1003 46.4 31.0003 46.5C32.1003 46.8 33.4003 46.8 34.8003 46.8C43.2003 46.8 57.3003 42.7 75.7003 35.1C74.7003 33.9 73.7003 32.6 72.8003 30.9ZM80.5003 39.4C79.7003 38.9 78.1003 37.8 77.4003 37.1L48.3003 50.4C47.5003 50.7 47.4003 51.5 47.5003 52C47.6003 52.5 48.0003 53.2 48.9003 53.2H49.2003C55.8003 52.1 67.6003 47.8 81.2003 39.9C81.0003 39.8 80.7003 39.5 80.5003 39.4Z"
         fill="black" style="fill: #e9be74; fill-opacity: 1;"></path>
     <path
         d="M207.4 19.7C193.8 28.1 156.1 23.6 138.2 21.3C137.4 21.2 136.8 21.6 136.2 22.1C136.2 22.2 135.4 24.8 135 26.1C133.6 31.1 131 34.9 127.8 36.8C127 37.4 126.2 37.9 125.3 38.3C125.1 38.4 124.9 38.5 124.7 38.6C122.7 39.9 123.3 41.6 123.3 41.6L125.2 46C127.1 50.4 128.7 53.1 129.9 54.3C130.4 54.8 131.8 55.3 133.9 55.7C134.3 55.8 134.5 56.1 134.5 56.6C134.5 57 134.3 57.3 133.9 57.3H106.8C106.4 57.3 106.1 57 106.1 56.5C106.1 56 106.3 55.7 106.8 55.7H107.9C111.6 55.7 113.4 54.8 113.4 52.9C113.4 52.5 113.3 52 113.2 51.4C113.1 51 112.7 50 111.9 48.3L110 43.9L108.9 41.4L107.8 38.8L107.7 38.6L100 20.2C99.7003 19.5 98.7003 19.5 98.4003 20.2L90.6003 38.2L104.4 38.5C105.1 38.5 105.8 39 106.1 39.6L106.7 41L89.6003 40.2L86.8003 46.6C86.1003 48.3 85.7003 49.8 85.7003 51.1C85.7003 52.7 86.3003 53.8 87.6003 54.6C88.2003 55 90.0003 55.3 93.1003 55.6C93.7003 55.7 93.9003 55.9 93.9003 56.4C93.9003 56.9 93.6003 57.2 93.1003 57.2H74.4003C73.9003 57.2 73.6003 57 73.7003 56.5C73.7003 56.1 74.0003 55.8 74.4003 55.7C76.6003 55.2 78.2003 54.4 79.4003 53.2C80.7003 51.8 82.3003 49 84.2003 44.7L85.6003 41.6C85.7003 41.1 85.7003 39.9 84.1003 38.8C84.0003 38.7 83.9003 38.7 83.9003 38.6C83.6003 38.5 83.4003 38.4 83.1003 38.2C82.3003 37.8 81.4003 37.3 80.7003 36.7C77.5003 34.8 74.9003 31 73.5003 26C73.1003 24.7 72.3003 22.1 72.3003 22C71.8003 21.5 71.1003 21.2 70.4003 21.2C52.4003 23.5 14.8003 28 1.20033 19.6C0.200335 18.9 -0.0996652 17.8 0.300335 16.8C0.600335 16 1.40033 15.2 2.50033 15.2L73.6003 15.6C74.7003 15.6 75.6003 16.4 75.8003 17.6C76.1003 21 77.1003 26.1 79.1003 30.3C79.1003 30.4 79.2003 30.4 79.2003 30.5C79.4003 30.8 79.5003 31 79.6003 31.3C80.9003 33.2 82.4003 35 84.4003 36.2C85.3003 36.8 86.3003 37.3 87.4003 37.6L103.5 1C103.8 0.3 104.2 0 104.6 0C105 0 105.4 0.3 105.8 1.1L121.7 37.6C122.6 37.3 123.5 36.8 124.3 36.3C126.3 35.1 127.9 33.3 129.1 31.4C129.3 31.1 129.4 30.9 129.5 30.6C129.5 30.5 129.6 30.5 129.6 30.4C131.6 26.2 132.7 21.1 132.9 17.7C133.1 16.5 134 15.7 135.1 15.7L206.2 15.3C207.3 15.3 208.1 16.1 208.4 16.9C208.7 17.9 208.5 19 207.4 19.7Z"
         fill="black" style="fill: #e9be74; fill-opacity: 1;"></path>
 </svg>