<svg xmlns="http://www.w3.org/2000/svg" viewBox="33.099999999999994 132 523.04 322.39000000000004"> <svg
        xmlns="http://www.w3.org/2000/svg" viewBox="-4.87109375 -5 218.39686584472656 67.29999923706055" fill="none"
        height="97" width="354" y="202" x="132" preserveAspectRatio="xMinYMin" style="overflow: visible;">
        <path
            d="M197.9 32.4C197.9 31.8 197.5 31.2 196.6 31.1L138.3 24.1C138.1 24.1 137.9 24.2 137.8 24.4V24.6L137.5 25.8V25.9C137.5 26 137.5 26.1 137.4 26.1C137.1 26.9 137 27.8 136.6 28.6C157.3 33.7 172.6 36.1 183.5 36.1C189.4 36.1 193.9 35.3 197 34C197.9 33.6 198 32.9 197.9 32.4ZM177.7 43.7L135.7 30.9C134.8 32.6 133.8 34 132.8 35.2C151.3 42.8 165.3 46.9 173.7 46.9C175.1 46.9 176.4 46.8 177.5 46.6C178.4 46.4 178.6 45.8 178.7 45.3C178.8 44.7 178.5 43.9 177.7 43.7ZM160.2 50.4L131.1 37.1C130.3 37.9 128.6 39 127.7 39.6C127.5 39.7 127.2 39.9 127 40C140.6 47.9 152.7 52.1 159.3 53.2H159.6C160.4 53.2 160.9 52.5 161 52C161.2 51.5 161.1 50.7 160.2 50.4ZM71.0003 26C70.9003 26 70.9003 25.9 70.9003 25.8V25.7L70.6003 24.5V24.3C70.5003 24.1 70.3003 24 70.1003 24L11.8003 31C10.9003 31.1 10.5003 31.7 10.5003 32.3C10.4003 32.8 10.6003 33.5 11.4003 33.8C14.4003 35.2 19.0003 35.9 24.9003 35.9C35.7003 35.9 51.1003 33.4 71.8003 28.4C71.4003 27.7 71.2003 26.8 71.0003 26ZM72.8003 30.9L30.8003 43.7C29.9003 44 29.7003 44.7 29.8003 45.2C29.9003 45.8 30.1003 46.4 31.0003 46.5C32.1003 46.8 33.4003 46.8 34.8003 46.8C43.2003 46.8 57.3003 42.7 75.7003 35.1C74.7003 33.9 73.7003 32.6 72.8003 30.9ZM80.5003 39.4C79.7003 38.9 78.1003 37.8 77.4003 37.1L48.3003 50.4C47.5003 50.7 47.4003 51.5 47.5003 52C47.6003 52.5 48.0003 53.2 48.9003 53.2H49.2003C55.8003 52.1 67.6003 47.8 81.2003 39.9C81.0003 39.8 80.7003 39.5 80.5003 39.4Z"
            fill="black" style="fill: #e9be74; fill-opacity: 1;"></path>
        <path
            d="M207.4 19.7C193.8 28.1 156.1 23.6 138.2 21.3C137.4 21.2 136.8 21.6 136.2 22.1C136.2 22.2 135.4 24.8 135 26.1C133.6 31.1 131 34.9 127.8 36.8C127 37.4 126.2 37.9 125.3 38.3C125.1 38.4 124.9 38.5 124.7 38.6C122.7 39.9 123.3 41.6 123.3 41.6L125.2 46C127.1 50.4 128.7 53.1 129.9 54.3C130.4 54.8 131.8 55.3 133.9 55.7C134.3 55.8 134.5 56.1 134.5 56.6C134.5 57 134.3 57.3 133.9 57.3H106.8C106.4 57.3 106.1 57 106.1 56.5C106.1 56 106.3 55.7 106.8 55.7H107.9C111.6 55.7 113.4 54.8 113.4 52.9C113.4 52.5 113.3 52 113.2 51.4C113.1 51 112.7 50 111.9 48.3L110 43.9L108.9 41.4L107.8 38.8L107.7 38.6L100 20.2C99.7003 19.5 98.7003 19.5 98.4003 20.2L90.6003 38.2L104.4 38.5C105.1 38.5 105.8 39 106.1 39.6L106.7 41L89.6003 40.2L86.8003 46.6C86.1003 48.3 85.7003 49.8 85.7003 51.1C85.7003 52.7 86.3003 53.8 87.6003 54.6C88.2003 55 90.0003 55.3 93.1003 55.6C93.7003 55.7 93.9003 55.9 93.9003 56.4C93.9003 56.9 93.6003 57.2 93.1003 57.2H74.4003C73.9003 57.2 73.6003 57 73.7003 56.5C73.7003 56.1 74.0003 55.8 74.4003 55.7C76.6003 55.2 78.2003 54.4 79.4003 53.2C80.7003 51.8 82.3003 49 84.2003 44.7L85.6003 41.6C85.7003 41.1 85.7003 39.9 84.1003 38.8C84.0003 38.7 83.9003 38.7 83.9003 38.6C83.6003 38.5 83.4003 38.4 83.1003 38.2C82.3003 37.8 81.4003 37.3 80.7003 36.7C77.5003 34.8 74.9003 31 73.5003 26C73.1003 24.7 72.3003 22.1 72.3003 22C71.8003 21.5 71.1003 21.2 70.4003 21.2C52.4003 23.5 14.8003 28 1.20033 19.6C0.200335 18.9 -0.0996652 17.8 0.300335 16.8C0.600335 16 1.40033 15.2 2.50033 15.2L73.6003 15.6C74.7003 15.6 75.6003 16.4 75.8003 17.6C76.1003 21 77.1003 26.1 79.1003 30.3C79.1003 30.4 79.2003 30.4 79.2003 30.5C79.4003 30.8 79.5003 31 79.6003 31.3C80.9003 33.2 82.4003 35 84.4003 36.2C85.3003 36.8 86.3003 37.3 87.4003 37.6L103.5 1C103.8 0.3 104.2 0 104.6 0C105 0 105.4 0.3 105.8 1.1L121.7 37.6C122.6 37.3 123.5 36.8 124.3 36.3C126.3 35.1 127.9 33.3 129.1 31.4C129.3 31.1 129.4 30.9 129.5 30.6C129.5 30.5 129.6 30.5 129.6 30.4C131.6 26.2 132.7 21.1 132.9 17.7C133.1 16.5 134 15.7 135.1 15.7L206.2 15.3C207.3 15.3 208.1 16.1 208.4 16.9C208.7 17.9 208.5 19 207.4 19.7Z"
            fill="black" style="fill: #e9be74; fill-opacity: 1;"></path>
    </svg> <svg y="367" viewBox="0.25 4.510000228881836 179.55999755859375 16.53999900817871" x="202" height="16"
        width="179" style="overflow: visible;">
        <g fill="#e9be74" fill-opacity="1" style="">
            <path
                d="M0.25 4.87L10.35 4.87L10.35 6.34L6.18 6.34L6.18 17.77L4.44 17.77L4.44 6.34L0.25 6.34L0.25 4.87ZM13.54 17.77L11.93 17.77L11.93 4.51L13.54 4.51L13.54 9.87Q14.12 9.25 14.83 8.88Q15.54 8.51 16.47 8.51L16.47 8.51Q17.22 8.51 17.79 8.75Q18.36 9 18.74 9.45Q19.13 9.91 19.32 10.55Q19.52 11.19 19.52 11.96L19.52 11.96L19.52 17.77L17.92 17.77L17.92 11.96Q17.92 10.93 17.45 10.35Q16.97 9.78 16.00 9.78L16.00 9.78Q15.29 9.78 14.67 10.13Q14.06 10.47 13.54 11.05L13.54 11.05L13.54 17.77ZM25.55 8.51L25.55 8.51Q26.37 8.51 27.06 8.78Q27.76 9.05 28.26 9.57Q28.76 10.09 29.05 10.85Q29.33 11.61 29.33 12.58L29.33 12.58Q29.33 12.96 29.25 13.09Q29.17 13.21 28.94 13.21L28.94 13.21L22.88 13.21Q22.90 14.08 23.11 14.72Q23.33 15.35 23.71 15.78Q24.08 16.21 24.61 16.42Q25.13 16.63 25.78 16.63L25.78 16.63Q26.38 16.63 26.82 16.49Q27.25 16.35 27.57 16.19Q27.88 16.03 28.09 15.89Q28.30 15.75 28.46 15.75L28.46 15.75Q28.66 15.75 28.76 15.90L28.76 15.90L29.21 16.49Q28.92 16.85 28.50 17.11Q28.09 17.38 27.62 17.55Q27.14 17.72 26.64 17.81Q26.14 17.89 25.64 17.89L25.64 17.89Q24.70 17.89 23.90 17.57Q23.10 17.25 22.52 16.64Q21.94 16.02 21.62 15.11Q21.29 14.20 21.29 13.02L21.29 13.02Q21.29 12.07 21.59 11.24Q21.88 10.41 22.43 9.81Q22.98 9.20 23.77 8.85Q24.56 8.51 25.55 8.51ZM25.59 9.68L25.59 9.68Q24.43 9.68 23.76 10.35Q23.09 11.03 22.93 12.21L22.93 12.21L27.89 12.21Q27.89 11.66 27.74 11.19Q27.59 10.73 27.29 10.39Q26.99 10.05 26.56 9.87Q26.14 9.68 25.59 9.68ZM41.54 11.93L41.54 17.77L40.83 17.77Q40.60 17.77 40.46 17.69Q40.31 17.62 40.27 17.39L40.27 17.39L40.09 16.54Q39.73 16.87 39.38 17.12Q39.04 17.38 38.66 17.55Q38.29 17.73 37.86 17.82Q37.43 17.91 36.91 17.91L36.91 17.91Q36.38 17.91 35.91 17.76Q35.45 17.61 35.11 17.32Q34.77 17.02 34.56 16.56Q34.36 16.11 34.36 15.49L34.36 15.49Q34.36 14.95 34.66 14.45Q34.96 13.95 35.62 13.56Q36.28 13.18 37.35 12.93Q38.42 12.68 39.97 12.65L39.97 12.65L39.97 11.93Q39.97 10.87 39.51 10.33Q39.06 9.78 38.17 9.78L38.17 9.78Q37.58 9.78 37.18 9.93Q36.78 10.08 36.49 10.26Q36.20 10.45 35.99 10.60Q35.78 10.75 35.57 10.75L35.57 10.75Q35.41 10.75 35.28 10.66Q35.16 10.58 35.09 10.45L35.09 10.45L34.80 9.94Q35.56 9.21 36.43 8.85Q37.31 8.49 38.37 8.49L38.37 8.49Q39.13 8.49 39.73 8.74Q40.32 8.99 40.73 9.44Q41.13 9.89 41.34 10.53Q41.54 11.17 41.54 11.93L41.54 11.93ZM37.39 16.79L37.39 16.79Q37.81 16.79 38.16 16.70Q38.51 16.61 38.82 16.46Q39.13 16.30 39.42 16.07Q39.70 15.85 39.97 15.56L39.97 15.56L39.97 13.66Q38.86 13.70 38.09 13.84Q37.31 13.98 36.83 14.20Q36.34 14.43 36.12 14.73Q35.90 15.04 35.90 15.42L35.90 15.42Q35.90 15.78 36.02 16.04Q36.14 16.30 36.33 16.47Q36.53 16.63 36.80 16.71Q37.07 16.79 37.39 16.79ZM45.58 20.85L43.97 20.85L43.97 8.65L44.93 8.65Q45.27 8.65 45.36 8.98L45.36 8.98L45.50 10.06Q46.08 9.35 46.83 8.92Q47.58 8.49 48.56 8.49L48.56 8.49Q49.35 8.49 49.99 8.79Q50.63 9.09 51.08 9.68Q51.53 10.27 51.77 11.14Q52.01 12.02 52.01 13.15L52.01 13.15Q52.01 14.16 51.74 15.03Q51.47 15.89 50.97 16.53Q50.46 17.16 49.73 17.53Q49.00 17.89 48.08 17.89L48.08 17.89Q47.23 17.89 46.63 17.61Q46.04 17.33 45.58 16.82L45.58 16.82L45.58 20.85ZM48.03 9.78L48.03 9.78Q47.25 9.78 46.66 10.14Q46.07 10.50 45.58 11.16L45.58 11.16L45.58 15.57Q46.02 16.16 46.54 16.41Q47.07 16.65 47.72 16.65L47.72 16.65Q48.99 16.65 49.67 15.74Q50.36 14.83 50.36 13.15L50.36 13.15Q50.36 12.26 50.20 11.62Q50.04 10.98 49.74 10.57Q49.45 10.16 49.01 9.97Q48.58 9.78 48.03 9.78ZM57.52 8.51L57.52 8.51Q58.34 8.51 59.03 8.78Q59.72 9.05 60.23 9.57Q60.73 10.09 61.02 10.85Q61.30 11.61 61.30 12.58L61.30 12.58Q61.30 12.96 61.22 13.09Q61.14 13.21 60.91 13.21L60.91 13.21L54.85 13.21Q54.86 14.08 55.08 14.72Q55.30 15.35 55.67 15.78Q56.05 16.21 56.57 16.42Q57.10 16.63 57.74 16.63L57.74 16.63Q58.35 16.63 58.78 16.49Q59.22 16.35 59.54 16.19Q59.85 16.03 60.06 15.89Q60.27 15.75 60.43 15.75L60.43 15.75Q60.62 15.75 60.73 15.90L60.73 15.90L61.18 16.49Q60.89 16.85 60.47 17.11Q60.06 17.38 59.58 17.55Q59.11 17.72 58.61 17.81Q58.10 17.89 57.61 17.89L57.61 17.89Q56.66 17.89 55.87 17.57Q55.07 17.25 54.49 16.64Q53.91 16.02 53.59 15.11Q53.26 14.20 53.26 13.02L53.26 13.02Q53.26 12.07 53.55 11.24Q53.85 10.41 54.40 9.81Q54.95 9.20 55.74 8.85Q56.53 8.51 57.52 8.51ZM57.56 9.68L57.56 9.68Q56.39 9.68 55.73 10.35Q55.06 11.03 54.90 12.21L54.90 12.21L59.86 12.21Q59.86 11.66 59.71 11.19Q59.55 10.73 59.26 10.39Q58.96 10.05 58.53 9.87Q58.10 9.68 57.56 9.68ZM61.74 17.77L64.94 13.10L61.87 8.65L63.41 8.65Q63.60 8.65 63.69 8.71Q63.78 8.78 63.86 8.89L63.86 8.89L66.09 12.31Q66.17 12.06 66.32 11.81L66.32 11.81L68.28 8.93Q68.37 8.80 68.46 8.73Q68.55 8.65 68.69 8.65L68.69 8.65L70.16 8.65L67.10 13.01L70.29 17.77L68.75 17.77Q68.55 17.77 68.44 17.66Q68.33 17.56 68.26 17.43L68.26 17.43L65.96 13.86Q65.90 14.12 65.77 14.33L65.77 14.33L63.65 17.43Q63.56 17.56 63.45 17.66Q63.35 17.77 63.17 17.77L63.17 17.77L61.74 17.77ZM79.04 8.51L79.04 8.51Q80.04 8.51 80.84 8.84Q81.65 9.17 82.21 9.78Q82.77 10.40 83.07 11.26Q83.38 12.13 83.38 13.20L83.38 13.20Q83.38 14.28 83.07 15.15Q82.77 16.01 82.21 16.62Q81.65 17.24 80.84 17.56Q80.04 17.89 79.04 17.89L79.04 17.89Q78.04 17.89 77.23 17.56Q76.43 17.24 75.86 16.62Q75.29 16.01 74.99 15.15Q74.68 14.28 74.68 13.20L74.68 13.20Q74.68 12.13 74.99 11.26Q75.29 10.40 75.86 9.78Q76.43 9.17 77.23 8.84Q78.04 8.51 79.04 8.51ZM79.04 16.64L79.04 16.64Q80.39 16.64 81.05 15.74Q81.72 14.83 81.72 13.21L81.72 13.21Q81.72 11.58 81.05 10.67Q80.39 9.77 79.04 9.77L79.04 9.77Q78.35 9.77 77.85 10.00Q77.35 10.23 77.01 10.67Q76.67 11.12 76.50 11.76Q76.34 12.40 76.34 13.21L76.34 13.21Q76.34 14.02 76.50 14.66Q76.67 15.30 77.01 15.74Q77.35 16.17 77.85 16.41Q78.35 16.64 79.04 16.64ZM87.33 17.77L85.72 17.77L85.72 10.02L84.71 9.90Q84.52 9.86 84.40 9.76Q84.28 9.67 84.28 9.49L84.28 9.49L84.28 8.83L85.72 8.83L85.72 7.95Q85.72 7.16 85.94 6.56Q86.16 5.95 86.57 5.53Q86.98 5.11 87.55 4.90Q88.13 4.68 88.85 4.68L88.85 4.68Q89.46 4.68 89.98 4.86L89.98 4.86L89.95 5.66Q89.94 5.84 89.79 5.88Q89.65 5.91 89.39 5.91L89.39 5.91L89.11 5.91Q88.70 5.91 88.36 6.02Q88.02 6.13 87.78 6.37Q87.53 6.62 87.40 7.01Q87.27 7.41 87.27 7.99L87.27 7.99L87.27 8.83L89.91 8.83L89.91 9.99L87.33 9.99L87.33 17.77ZM95.08 8.65L96.68 8.65L96.68 17.77L95.08 17.77L95.08 8.65ZM97.04 5.79L97.04 5.79Q97.04 6.02 96.94 6.22Q96.85 6.43 96.69 6.58Q96.53 6.74 96.33 6.83Q96.12 6.92 95.89 6.92L95.89 6.92Q95.65 6.92 95.45 6.83Q95.25 6.74 95.09 6.58Q94.93 6.43 94.84 6.22Q94.75 6.02 94.75 5.79L94.75 5.79Q94.75 5.55 94.84 5.34Q94.93 5.13 95.09 4.97Q95.25 4.81 95.45 4.72Q95.65 4.63 95.89 4.63L95.89 4.63Q96.12 4.63 96.33 4.72Q96.53 4.81 96.69 4.97Q96.85 5.13 96.94 5.34Q97.04 5.55 97.04 5.79ZM101.11 17.77L99.50 17.77L99.50 8.65L100.46 8.65Q100.80 8.65 100.89 8.98L100.89 8.98L101.02 9.97Q101.61 9.32 102.34 8.91Q103.08 8.51 104.04 8.51L104.04 8.51Q104.79 8.51 105.36 8.75Q105.93 9 106.31 9.45Q106.70 9.91 106.89 10.55Q107.09 11.19 107.09 11.96L107.09 11.96L107.09 17.77L105.49 17.77L105.49 11.96Q105.49 10.93 105.02 10.35Q104.54 9.78 103.57 9.78L103.57 9.78Q102.86 9.78 102.24 10.13Q101.63 10.47 101.11 11.05L101.11 11.05L101.11 17.77ZM112.28 17.91L112.28 17.91Q111.20 17.91 110.61 17.31Q110.03 16.70 110.03 15.57L110.03 15.57L110.03 9.99L108.94 9.99Q108.79 9.99 108.69 9.90Q108.59 9.82 108.59 9.64L108.59 9.64L108.59 9L110.09 8.81L110.46 5.99Q110.48 5.86 110.57 5.77Q110.67 5.69 110.83 5.69L110.83 5.69L111.64 5.69L111.64 8.83L114.25 8.83L114.25 9.99L111.64 9.99L111.64 15.46Q111.64 16.04 111.92 16.32Q112.19 16.60 112.64 16.60L112.64 16.60Q112.89 16.60 113.07 16.53Q113.26 16.46 113.39 16.38Q113.53 16.30 113.62 16.23Q113.72 16.16 113.79 16.16L113.79 16.16Q113.91 16.16 114.01 16.32L114.01 16.32L114.48 17.08Q114.07 17.47 113.48 17.69Q112.90 17.91 112.28 17.91ZM119.84 8.51L119.84 8.51Q120.65 8.51 121.35 8.78Q122.04 9.05 122.54 9.57Q123.05 10.09 123.33 10.85Q123.62 11.61 123.62 12.58L123.62 12.58Q123.62 12.96 123.53 13.09Q123.45 13.21 123.23 13.21L123.23 13.21L117.16 13.21Q117.18 14.08 117.40 14.72Q117.61 15.35 117.99 15.78Q118.37 16.21 118.89 16.42Q119.41 16.63 120.06 16.63L120.06 16.63Q120.66 16.63 121.10 16.49Q121.54 16.35 121.85 16.19Q122.17 16.03 122.38 15.89Q122.59 15.75 122.74 15.75L122.74 15.75Q122.94 15.75 123.05 15.90L123.05 15.90L123.50 16.49Q123.20 16.85 122.79 17.11Q122.37 17.38 121.90 17.55Q121.43 17.72 120.92 17.81Q120.42 17.89 119.93 17.89L119.93 17.89Q118.98 17.89 118.18 17.57Q117.39 17.25 116.81 16.64Q116.23 16.02 115.90 15.11Q115.58 14.20 115.58 13.02L115.58 13.02Q115.58 12.07 115.87 11.24Q116.16 10.41 116.71 9.81Q117.26 9.20 118.05 8.85Q118.85 8.51 119.84 8.51ZM119.87 9.68L119.87 9.68Q118.71 9.68 118.04 10.35Q117.38 11.03 117.22 12.21L117.22 12.21L122.18 12.21Q122.18 11.66 122.02 11.19Q121.87 10.73 121.57 10.39Q121.28 10.05 120.85 9.87Q120.42 9.68 119.87 9.68ZM128.73 8.50L128.73 8.50Q129.32 8.50 129.84 8.63Q130.36 8.76 130.78 9.01L130.78 9.01L133.25 9.01L133.25 9.60Q133.25 9.90 132.88 9.98L132.88 9.98L131.84 10.13Q132.15 10.71 132.15 11.43L132.15 11.43Q132.15 12.10 131.89 12.64Q131.63 13.19 131.18 13.57Q130.73 13.96 130.10 14.17Q129.47 14.37 128.73 14.37L128.73 14.37Q128.09 14.37 127.52 14.22L127.52 14.22Q127.23 14.40 127.08 14.61Q126.94 14.81 126.94 15.01L126.94 15.01Q126.94 15.34 127.20 15.50Q127.46 15.67 127.89 15.74Q128.32 15.81 128.87 15.83Q129.42 15.85 129.99 15.89Q130.56 15.93 131.11 16.03Q131.66 16.13 132.09 16.35Q132.53 16.58 132.79 16.97Q133.05 17.37 133.05 18.00L133.05 18.00Q133.05 18.59 132.75 19.13Q132.46 19.68 131.91 20.11Q131.36 20.54 130.57 20.79Q129.78 21.05 128.78 21.05L128.78 21.05Q127.78 21.05 127.03 20.85Q126.28 20.66 125.78 20.32Q125.29 19.99 125.04 19.55Q124.79 19.12 124.79 18.64L124.79 18.64Q124.79 17.96 125.22 17.49Q125.65 17.02 126.40 16.74L126.40 16.74Q126.01 16.56 125.78 16.26Q125.55 15.96 125.55 15.45L125.55 15.45Q125.55 15.26 125.62 15.04Q125.69 14.83 125.84 14.63Q125.99 14.42 126.21 14.23Q126.42 14.04 126.71 13.90L126.71 13.90Q126.04 13.52 125.65 12.89Q125.27 12.27 125.27 11.43L125.27 11.43Q125.27 10.76 125.53 10.22Q125.78 9.68 126.24 9.29Q126.70 8.91 127.34 8.70Q127.97 8.50 128.73 8.50ZM131.57 18.26L131.57 18.26Q131.57 17.92 131.38 17.71Q131.19 17.51 130.87 17.39Q130.55 17.28 130.12 17.23Q129.70 17.17 129.23 17.15Q128.76 17.13 128.28 17.10Q127.79 17.07 127.35 17.00L127.35 17.00Q126.84 17.24 126.52 17.60Q126.20 17.95 126.20 18.43L126.20 18.43Q126.20 18.74 126.36 19.00Q126.51 19.27 126.84 19.46Q127.16 19.66 127.65 19.77Q128.14 19.88 128.81 19.88L128.81 19.88Q129.46 19.88 129.97 19.76Q130.48 19.65 130.84 19.43Q131.19 19.22 131.38 18.92Q131.57 18.62 131.57 18.26ZM128.73 13.31L128.73 13.31Q129.21 13.31 129.59 13.18Q129.96 13.04 130.21 12.80Q130.46 12.56 130.59 12.22Q130.72 11.88 130.72 11.48L130.72 11.48Q130.72 10.64 130.21 10.14Q129.70 9.65 128.73 9.65L128.73 9.65Q127.76 9.65 127.26 10.14Q126.75 10.64 126.75 11.48L126.75 11.48Q126.75 11.88 126.88 12.22Q127.01 12.56 127.26 12.80Q127.51 13.04 127.88 13.18Q128.25 13.31 128.73 13.31ZM136.46 17.77L134.86 17.77L134.86 8.65L135.77 8.65Q136.04 8.65 136.13 8.75Q136.23 8.85 136.27 9.09L136.27 9.09L136.38 10.51Q136.85 9.56 137.53 9.02Q138.22 8.49 139.15 8.49L139.15 8.49Q139.53 8.49 139.83 8.57Q140.14 8.66 140.40 8.81L140.40 8.81L140.19 10.01Q140.13 10.23 139.91 10.23L139.91 10.23Q139.79 10.23 139.53 10.15Q139.27 10.06 138.80 10.06L138.80 10.06Q137.96 10.06 137.40 10.55Q136.84 11.03 136.46 11.96L136.46 11.96L136.46 17.77ZM148.46 11.93L148.46 17.77L147.75 17.77Q147.52 17.77 147.38 17.69Q147.23 17.62 147.19 17.39L147.19 17.39L147.01 16.54Q146.65 16.87 146.30 17.12Q145.96 17.38 145.58 17.55Q145.21 17.73 144.78 17.82Q144.35 17.91 143.83 17.91L143.83 17.91Q143.30 17.91 142.83 17.76Q142.37 17.61 142.03 17.32Q141.69 17.02 141.48 16.56Q141.28 16.11 141.28 15.49L141.28 15.49Q141.28 14.95 141.58 14.45Q141.88 13.95 142.54 13.56Q143.20 13.18 144.27 12.93Q145.34 12.68 146.89 12.65L146.89 12.65L146.89 11.93Q146.89 10.87 146.43 10.33Q145.98 9.78 145.09 9.78L145.09 9.78Q144.50 9.78 144.10 9.93Q143.70 10.08 143.41 10.26Q143.12 10.45 142.91 10.60Q142.70 10.75 142.49 10.75L142.49 10.75Q142.33 10.75 142.20 10.66Q142.08 10.58 142.01 10.45L142.01 10.45L141.72 9.94Q142.48 9.21 143.35 8.85Q144.22 8.49 145.29 8.49L145.29 8.49Q146.05 8.49 146.65 8.74Q147.24 8.99 147.65 9.44Q148.05 9.89 148.26 10.53Q148.46 11.17 148.46 11.93L148.46 11.93ZM144.31 16.79L144.31 16.79Q144.73 16.79 145.08 16.70Q145.43 16.61 145.74 16.46Q146.05 16.30 146.34 16.07Q146.62 15.85 146.89 15.56L146.89 15.56L146.89 13.66Q145.78 13.70 145.01 13.84Q144.23 13.98 143.75 14.20Q143.26 14.43 143.04 14.73Q142.82 15.04 142.82 15.42L142.82 15.42Q142.82 15.78 142.94 16.04Q143.06 16.30 143.25 16.47Q143.45 16.63 143.72 16.71Q143.99 16.79 144.31 16.79ZM153.66 17.91L153.66 17.91Q152.58 17.91 152.00 17.31Q151.42 16.70 151.42 15.57L151.42 15.57L151.42 9.99L150.32 9.99Q150.17 9.99 150.08 9.90Q149.98 9.82 149.98 9.64L149.98 9.64L149.98 9L151.47 8.81L151.84 5.99Q151.86 5.86 151.96 5.77Q152.06 5.69 152.21 5.69L152.21 5.69L153.02 5.69L153.02 8.83L155.63 8.83L155.63 9.99L153.02 9.99L153.02 15.46Q153.02 16.04 153.30 16.32Q153.58 16.60 154.02 16.60L154.02 16.60Q154.27 16.60 154.45 16.53Q154.64 16.46 154.77 16.38Q154.91 16.30 155.00 16.23Q155.10 16.16 155.17 16.16L155.17 16.16Q155.30 16.16 155.39 16.32L155.39 16.32L155.86 17.08Q155.45 17.47 154.86 17.69Q154.28 17.91 153.66 17.91ZM157.79 8.65L159.39 8.65L159.39 17.77L157.79 17.77L157.79 8.65ZM159.75 5.79L159.75 5.79Q159.75 6.02 159.66 6.22Q159.56 6.43 159.40 6.58Q159.25 6.74 159.04 6.83Q158.83 6.92 158.60 6.92L158.60 6.92Q158.36 6.92 158.16 6.83Q157.96 6.74 157.80 6.58Q157.64 6.43 157.55 6.22Q157.46 6.02 157.46 5.79L157.46 5.79Q157.46 5.55 157.55 5.34Q157.64 5.13 157.80 4.97Q157.96 4.81 158.16 4.72Q158.36 4.63 158.60 4.63L158.60 4.63Q158.83 4.63 159.04 4.72Q159.25 4.81 159.40 4.97Q159.56 5.13 159.66 5.34Q159.75 5.55 159.75 5.79ZM165.91 8.51L165.91 8.51Q166.91 8.51 167.71 8.84Q168.52 9.17 169.08 9.78Q169.64 10.40 169.94 11.26Q170.24 12.13 170.24 13.20L170.24 13.20Q170.24 14.28 169.94 15.15Q169.64 16.01 169.08 16.62Q168.52 17.24 167.71 17.56Q166.91 17.89 165.91 17.89L165.91 17.89Q164.91 17.89 164.10 17.56Q163.30 17.24 162.73 16.62Q162.16 16.01 161.86 15.15Q161.55 14.28 161.55 13.20L161.55 13.20Q161.55 12.13 161.86 11.26Q162.16 10.40 162.73 9.78Q163.30 9.17 164.10 8.84Q164.91 8.51 165.91 8.51ZM165.91 16.64L165.91 16.64Q167.26 16.64 167.92 15.74Q168.59 14.83 168.59 13.21L168.59 13.21Q168.59 11.58 167.92 10.67Q167.26 9.77 165.91 9.77L165.91 9.77Q165.22 9.77 164.72 10.00Q164.21 10.23 163.88 10.67Q163.54 11.12 163.37 11.76Q163.21 12.40 163.21 13.21L163.21 13.21Q163.21 14.02 163.37 14.66Q163.54 15.30 163.88 15.74Q164.21 16.17 164.72 16.41Q165.22 16.64 165.91 16.64ZM173.83 17.77L172.22 17.77L172.22 8.65L173.18 8.65Q173.52 8.65 173.61 8.98L173.61 8.98L173.74 9.97Q174.33 9.32 175.06 8.91Q175.80 8.51 176.76 8.51L176.76 8.51Q177.51 8.51 178.08 8.75Q178.65 9 179.03 9.45Q179.42 9.91 179.61 10.55Q179.81 11.19 179.81 11.96L179.81 11.96L179.81 17.77L178.21 17.77L178.21 11.96Q178.21 10.93 177.74 10.35Q177.26 9.78 176.29 9.78L176.29 9.78Q175.58 9.78 174.96 10.13Q174.35 10.47 173.83 11.05L173.83 11.05L173.83 17.77Z"
                transform="translate(0, 0)"></path>
        </g>
    </svg> <svg y="323" viewBox="-0.12000000476837158 9.239999771118164 368.7900085449219 21.600000381469727" x="103"
        height="21" width="368" style="overflow: visible;">
        <g fill="#e9be74" fill-opacity="1" style="">
            <path
                d="M0.66 30.36L0.66 30.36Q0.33 30.36 0.10 30.25Q-0.12 30.15-0.12 29.88L-0.12 29.88Q-0.12 29.58 0.07 29.44Q0.27 29.31 0.60 29.22L0.60 29.22Q1.47 28.98 2.11 28.47Q2.76 27.96 3.09 27.21L3.09 27.21Q3.84 25.53 4.50 23.89Q5.16 22.26 5.79 20.65Q6.42 19.05 7.05 17.38Q7.68 15.72 8.31 14.01L8.31 14.01Q8.76 12.78 8.88 12.22Q9 11.67 9.06 11.58L9.06 11.58Q9.60 11.43 10.08 11.31Q10.56 11.19 11.10 10.98L11.10 10.98Q11.64 10.77 12.01 10.44Q12.39 10.11 12.57 9.93L12.57 9.93Q12.69 9.84 12.81 9.82Q12.93 9.81 13.05 10.02L13.05 10.02Q13.14 10.20 13.21 10.39Q13.29 10.59 13.35 10.83L13.35 10.83Q13.98 12.84 14.64 14.92Q15.30 17.01 15.97 19.08Q16.65 21.15 17.31 23.17Q17.97 25.20 18.60 27.12L18.60 27.12Q18.78 27.72 19.15 28.14Q19.53 28.56 20.01 28.80Q20.49 29.04 21.09 29.22L21.09 29.22Q21.42 29.31 21.61 29.44Q21.81 29.58 21.81 29.85L21.81 29.85Q21.81 30.06 21.63 30.18Q21.45 30.30 21.21 30.30L21.21 30.30Q20.61 30.30 19.72 30.25Q18.84 30.21 17.94 30.18Q17.04 30.15 16.35 30.15L16.35 30.15Q15.78 30.15 14.96 30.18Q14.13 30.21 13.29 30.24Q12.45 30.27 11.85 30.27L11.85 30.27Q11.58 30.27 11.38 30.16Q11.19 30.06 11.19 29.85L11.19 29.85Q11.19 29.58 11.40 29.43Q11.61 29.28 11.91 29.22L11.91 29.22Q13.02 28.98 13.53 28.59Q14.04 28.20 13.86 27.42L13.86 27.42Q13.74 26.85 13.56 26.22Q13.38 25.59 13.21 24.94Q13.05 24.30 12.87 23.70L12.87 23.70Q12.81 23.46 12.72 23.34Q12.63 23.22 12.36 23.22L12.36 23.22L7.05 23.22Q6.84 23.22 6.72 23.34Q6.60 23.46 6.54 23.73L6.54 23.73Q6.42 24.15 6.27 24.57Q6.12 24.99 5.98 25.41Q5.85 25.83 5.73 26.25Q5.61 26.67 5.49 27.06L5.49 27.06Q5.28 27.96 5.67 28.44Q6.06 28.92 7.35 29.22L7.35 29.22Q8.07 29.37 8.07 29.85L8.07 29.85Q8.07 30.06 7.90 30.16Q7.74 30.27 7.38 30.27L7.38 30.27Q6.51 30.27 5.76 30.22Q5.01 30.18 4.11 30.18L4.11 30.18Q3.21 30.18 2.40 30.27Q1.59 30.36 0.66 30.36ZM7.89 21.60L7.89 21.60L11.79 21.60Q12.24 21.60 12.24 21.39L12.24 21.39Q12.24 21.30 12.22 21.24Q12.21 21.18 12.18 21.09L12.18 21.09L10.17 14.31Q10.08 13.98 9.99 13.98L9.99 13.98Q9.93 13.98 9.78 14.31L9.78 14.31L7.41 21.09Q7.35 21.21 7.35 21.33L7.35 21.33Q7.35 21.48 7.51 21.54Q7.68 21.60 7.89 21.60ZM22.83 30.36L22.83 30.36Q22.53 30.36 22.36 30.22Q22.20 30.09 22.20 29.91L22.20 29.91Q22.20 29.46 22.86 29.28L22.86 29.28Q23.88 29.01 24.31 28.65Q24.75 28.29 24.75 27.33L24.75 27.33L24.75 13.68Q24.75 12.72 24.36 12.30Q23.97 11.88 22.89 11.64L22.89 11.64Q22.50 11.55 22.35 11.38Q22.20 11.22 22.20 11.01L22.20 11.01Q22.20 10.83 22.38 10.69Q22.56 10.56 22.86 10.56L22.86 10.56Q23.61 10.56 24.39 10.59Q25.17 10.62 25.92 10.66Q26.67 10.71 27.36 10.71L27.36 10.71Q28.92 10.71 30.69 10.68Q32.46 10.65 33.84 10.62L33.84 10.62Q34.80 10.62 35.43 10.51Q36.06 10.41 36.18 10.41L36.18 10.41Q36.39 10.41 36.64 10.54Q36.90 10.68 36.93 10.98L36.93 10.98Q37.05 12.06 37.23 13.08Q37.41 14.10 37.41 14.88L37.41 14.88Q37.41 15.15 37.29 15.30Q37.17 15.45 37.02 15.45L37.02 15.45Q36.87 15.45 36.70 15.33Q36.54 15.21 36.45 14.97L36.45 14.97Q36.15 14.22 35.91 13.68Q35.67 13.14 35.37 12.81L35.37 12.81Q35.01 12.48 34.50 12.18Q33.99 11.88 33.21 11.88L33.21 11.88L30.96 11.88Q30.30 11.88 29.82 12.22Q29.34 12.57 29.34 13.20L29.34 13.20L29.34 18.87Q29.34 19.23 29.55 19.41Q29.76 19.59 30.09 19.59L30.09 19.59L32.73 19.59Q33.51 19.59 33.85 19.06Q34.20 18.54 34.47 17.79L34.47 17.79Q34.68 17.22 35.07 17.22L35.07 17.22Q35.22 17.22 35.34 17.38Q35.46 17.55 35.43 17.88L35.43 17.88Q35.40 18.24 35.37 18.66Q35.34 19.08 35.32 19.50Q35.31 19.92 35.31 20.31L35.31 20.31Q35.31 20.67 35.32 21.09Q35.34 21.51 35.35 21.93Q35.37 22.35 35.40 22.74L35.40 22.74Q35.46 23.16 35.37 23.35Q35.28 23.55 35.10 23.55L35.10 23.55Q34.62 23.55 34.41 22.77L34.41 22.77Q34.14 21.87 33.81 21.39Q33.48 20.91 32.88 20.91L32.88 20.91L30.09 20.91Q29.73 20.91 29.53 21.07Q29.34 21.24 29.34 21.60L29.34 21.60L29.34 27.30Q29.34 28.20 29.73 28.56Q30.12 28.92 30.93 28.92L30.93 28.92L33.51 28.92Q34.17 28.92 34.77 28.77Q35.37 28.62 35.79 28.26L35.79 28.26Q36.30 27.84 36.72 27.21Q37.14 26.58 37.50 25.86L37.50 25.86Q37.62 25.65 37.75 25.57Q37.89 25.50 38.07 25.50L38.07 25.50Q38.22 25.50 38.30 25.68Q38.37 25.86 38.37 26.07L38.37 26.07Q38.37 26.58 38.22 27.21Q38.07 27.84 37.84 28.54Q37.62 29.25 37.41 29.94L37.41 29.94Q37.35 30.15 37.16 30.24Q36.96 30.33 36.75 30.33L36.75 30.33Q36.36 30.33 35.30 30.31Q34.23 30.30 32.79 30.27Q31.35 30.24 29.82 30.22Q28.29 30.21 26.97 30.21L26.97 30.21Q26.37 30.21 25.65 30.24Q24.93 30.27 24.19 30.31Q23.46 30.36 22.83 30.36ZM58.20 30.84L58.20 30.84Q56.67 30.84 55.62 30.46Q54.57 30.09 53.83 29.47Q53.10 28.86 52.53 28.08L52.53 28.08Q51.87 27.21 51.25 26.34Q50.64 25.47 50.04 24.45Q49.44 23.43 48.78 22.11L48.78 22.11Q48.48 21.45 47.97 21.18L47.97 21.18Q47.70 21 47.43 20.94Q47.16 20.88 46.95 20.88L46.95 20.88Q46.80 20.88 46.71 21.04Q46.62 21.21 46.62 21.48L46.62 21.48L46.62 27.21Q46.62 28.14 47.13 28.56Q47.64 28.98 48.90 29.25L48.90 29.25Q49.23 29.31 49.39 29.44Q49.56 29.58 49.56 29.85L49.56 29.85Q49.56 30.06 49.41 30.18Q49.26 30.30 48.99 30.30L48.99 30.30Q48.33 30.30 47.47 30.25Q46.62 30.21 45.78 30.18Q44.94 30.15 44.34 30.15L44.34 30.15Q43.71 30.15 42.96 30.18Q42.21 30.21 41.41 30.25Q40.62 30.30 39.96 30.30L39.96 30.30Q39.72 30.30 39.54 30.19Q39.36 30.09 39.36 29.88L39.36 29.88Q39.36 29.40 39.99 29.25L39.99 29.25Q41.13 29.01 41.56 28.63Q42.00 28.26 42.00 27.27L42.00 27.27L42.00 13.80Q42.00 13.08 41.86 12.66Q41.73 12.24 41.34 12.01Q40.95 11.79 40.20 11.64L40.20 11.64Q39.81 11.55 39.66 11.38Q39.51 11.22 39.51 11.01L39.51 11.01Q39.51 10.83 39.69 10.69Q39.87 10.56 40.17 10.56L40.17 10.56Q41.13 10.56 41.74 10.62Q42.36 10.68 42.91 10.72Q43.47 10.77 44.22 10.77L44.22 10.77Q44.91 10.77 45.43 10.69Q45.96 10.62 46.63 10.56Q47.31 10.50 48.36 10.50L48.36 10.50Q51.87 10.50 53.76 11.70Q55.65 12.90 55.65 15.33L55.65 15.33Q55.65 16.68 55.06 17.59Q54.48 18.51 53.59 19.09Q52.71 19.68 51.81 19.98L51.81 19.98Q51.69 20.01 51.70 20.11Q51.72 20.22 51.78 20.34L51.78 20.34Q52.68 21.66 53.53 22.90Q54.39 24.15 55.29 25.21Q56.19 26.28 57.15 27.18L57.15 27.18Q58.17 28.14 59.23 28.30Q60.30 28.47 61.35 28.47L61.35 28.47Q61.80 28.47 61.80 29.01L61.80 29.01Q61.80 29.67 61.33 30.07Q60.87 30.48 60.06 30.66Q59.25 30.84 58.20 30.84ZM47.76 19.92L47.76 19.92Q48.90 19.92 49.65 19.41Q50.40 18.90 50.79 18.01Q51.18 17.13 51.18 15.99L51.18 15.99Q51.18 14.61 50.82 13.68Q50.46 12.75 49.74 12.28Q49.02 11.82 47.88 11.82L47.88 11.82Q47.22 11.82 46.93 12.34Q46.65 12.87 46.65 14.58L46.65 14.58Q46.62 15.27 46.62 16.32Q46.62 17.37 46.62 18.81L46.62 18.81Q46.62 19.41 46.93 19.66Q47.25 19.92 47.76 19.92ZM72.90 30.63L72.90 30.63Q70.83 30.63 68.95 29.92Q67.08 29.22 65.62 27.91Q64.17 26.61 63.34 24.79Q62.52 22.98 62.52 20.76L62.52 20.76Q62.52 18.72 63.19 16.84Q63.87 14.97 65.22 13.50Q66.57 12.03 68.56 11.16Q70.56 10.29 73.17 10.29L73.17 10.29Q75.27 10.29 77.14 10.99Q79.02 11.70 80.46 13.00Q81.90 14.31 82.74 16.13Q83.58 17.94 83.58 20.16L83.58 20.16Q83.58 22.17 82.89 24.06Q82.20 25.95 80.85 27.42Q79.50 28.89 77.50 29.76Q75.51 30.63 72.90 30.63ZM73.44 29.25L73.44 29.25Q75.15 29.25 76.30 28.29Q77.46 27.33 78.03 25.62Q78.60 23.91 78.60 21.69L78.60 21.69Q78.60 19.86 78.25 18.07Q77.91 16.29 77.17 14.85Q76.44 13.41 75.30 12.55Q74.16 11.70 72.60 11.70L72.60 11.70Q70.92 11.70 69.76 12.66Q68.61 13.62 68.04 15.30Q67.47 16.98 67.47 19.20L67.47 19.20Q67.47 21.06 67.83 22.84Q68.19 24.63 68.91 26.07Q69.63 27.51 70.75 28.38Q71.88 29.25 73.44 29.25ZM103.71 30.63L103.71 30.63Q101.37 30.63 99.33 29.92Q97.29 29.22 95.73 27.91Q94.17 26.61 93.30 24.78Q92.43 22.95 92.43 20.73L92.43 20.73Q92.43 18.66 93.25 16.78Q94.08 14.91 95.67 13.45Q97.26 12.00 99.49 11.14Q101.73 10.29 104.55 10.29L104.55 10.29Q105.51 10.29 106.48 10.42Q107.46 10.56 108.37 10.80Q109.29 11.04 110.04 11.31L110.04 11.31Q110.31 11.43 110.50 11.62Q110.70 11.82 110.73 12.18L110.73 12.18Q110.85 13.17 110.91 14.10Q110.97 15.03 110.97 15.78L110.97 15.78Q110.97 16.11 110.73 16.23Q110.49 16.35 110.20 16.24Q109.92 16.14 109.80 15.78L109.80 15.78Q109.59 15.09 109.30 14.40Q109.02 13.71 108.45 13.20L108.45 13.20Q107.85 12.60 106.78 12.21Q105.72 11.82 104.22 11.82L104.22 11.82Q102.69 11.82 101.44 12.48Q100.20 13.14 99.31 14.28Q98.43 15.42 97.95 16.86Q97.47 18.30 97.47 19.86L97.47 19.86Q97.47 21.84 97.89 23.53Q98.31 25.23 99.18 26.46Q100.05 27.69 101.31 28.38Q102.57 29.07 104.28 29.07L104.28 29.07Q106.50 29.07 107.88 28.12Q109.26 27.18 110.19 25.23L110.19 25.23Q110.43 24.69 110.86 24.72Q111.30 24.75 111.30 25.23L111.30 25.23Q111.30 25.62 111.22 26.17Q111.15 26.73 111.00 27.36Q110.85 27.99 110.64 28.65L110.64 28.65Q110.52 29.01 110.32 29.20Q110.13 29.40 109.83 29.55L109.83 29.55Q108.69 30.03 107.13 30.33Q105.57 30.63 103.71 30.63ZM124.08 30.63L124.08 30.63Q122.01 30.63 120.13 29.92Q118.26 29.22 116.80 27.91Q115.35 26.61 114.52 24.79Q113.70 22.98 113.70 20.76L113.70 20.76Q113.70 18.72 114.37 16.84Q115.05 14.97 116.40 13.50Q117.75 12.03 119.74 11.16Q121.74 10.29 124.35 10.29L124.35 10.29Q126.45 10.29 128.32 10.99Q130.20 11.70 131.64 13.00Q133.08 14.31 133.92 16.13Q134.76 17.94 134.76 20.16L134.76 20.16Q134.76 22.17 134.07 24.06Q133.38 25.95 132.03 27.42Q130.68 28.89 128.68 29.76Q126.69 30.63 124.08 30.63ZM124.62 29.25L124.62 29.25Q126.33 29.25 127.48 28.29Q128.64 27.33 129.21 25.62Q129.78 23.91 129.78 21.69L129.78 21.69Q129.78 19.86 129.43 18.07Q129.09 16.29 128.35 14.85Q127.62 13.41 126.48 12.55Q125.34 11.70 123.78 11.70L123.78 11.70Q122.10 11.70 120.94 12.66Q119.79 13.62 119.22 15.30Q118.65 16.98 118.65 19.20L118.65 19.20Q118.65 21.06 119.01 22.84Q119.37 24.63 120.09 26.07Q120.81 27.51 121.93 28.38Q123.06 29.25 124.62 29.25ZM154.98 30.84L154.98 30.84Q153.45 30.84 152.40 30.46Q151.35 30.09 150.62 29.47Q149.88 28.86 149.31 28.08L149.31 28.08Q148.65 27.21 148.03 26.34Q147.42 25.47 146.82 24.45Q146.22 23.43 145.56 22.11L145.56 22.11Q145.26 21.45 144.75 21.18L144.75 21.18Q144.48 21 144.21 20.94Q143.94 20.88 143.73 20.88L143.73 20.88Q143.58 20.88 143.49 21.04Q143.40 21.21 143.40 21.48L143.40 21.48L143.40 27.21Q143.40 28.14 143.91 28.56Q144.42 28.98 145.68 29.25L145.68 29.25Q146.01 29.31 146.17 29.44Q146.34 29.58 146.34 29.85L146.34 29.85Q146.34 30.06 146.19 30.18Q146.04 30.30 145.77 30.30L145.77 30.30Q145.11 30.30 144.25 30.25Q143.40 30.21 142.56 30.18Q141.72 30.15 141.12 30.15L141.12 30.15Q140.49 30.15 139.74 30.18Q138.99 30.21 138.19 30.25Q137.40 30.30 136.74 30.30L136.74 30.30Q136.50 30.30 136.32 30.19Q136.14 30.09 136.14 29.88L136.14 29.88Q136.14 29.40 136.77 29.25L136.77 29.25Q137.91 29.01 138.34 28.63Q138.78 28.26 138.78 27.27L138.78 27.27L138.78 13.80Q138.78 13.08 138.64 12.66Q138.51 12.24 138.12 12.01Q137.73 11.79 136.98 11.64L136.98 11.64Q136.59 11.55 136.44 11.38Q136.29 11.22 136.29 11.01L136.29 11.01Q136.29 10.83 136.47 10.69Q136.65 10.56 136.95 10.56L136.95 10.56Q137.91 10.56 138.53 10.62Q139.14 10.68 139.69 10.72Q140.25 10.77 141 10.77L141 10.77Q141.69 10.77 142.22 10.69Q142.74 10.62 143.41 10.56Q144.09 10.50 145.14 10.50L145.14 10.50Q148.65 10.50 150.54 11.70Q152.43 12.90 152.43 15.33L152.43 15.33Q152.43 16.68 151.84 17.59Q151.26 18.51 150.38 19.09Q149.49 19.68 148.59 19.98L148.59 19.98Q148.47 20.01 148.48 20.11Q148.50 20.22 148.56 20.34L148.56 20.34Q149.46 21.66 150.31 22.90Q151.17 24.15 152.07 25.21Q152.97 26.28 153.93 27.18L153.93 27.18Q154.95 28.14 156.01 28.30Q157.08 28.47 158.13 28.47L158.13 28.47Q158.58 28.47 158.58 29.01L158.58 29.01Q158.58 29.67 158.12 30.07Q157.65 30.48 156.84 30.66Q156.03 30.84 154.98 30.84ZM144.54 19.92L144.54 19.92Q145.68 19.92 146.43 19.41Q147.18 18.90 147.57 18.01Q147.96 17.13 147.96 15.99L147.96 15.99Q147.96 14.61 147.60 13.68Q147.24 12.75 146.52 12.28Q145.80 11.82 144.66 11.82L144.66 11.82Q144 11.82 143.72 12.34Q143.43 12.87 143.43 14.58L143.43 14.58Q143.40 15.27 143.40 16.32Q143.40 17.37 143.40 18.81L143.40 18.81Q143.40 19.41 143.72 19.66Q144.03 19.92 144.54 19.92ZM159.54 30.30L159.54 30.30Q159.30 30.30 159.12 30.19Q158.94 30.09 158.94 29.88L158.94 29.88Q158.94 29.40 159.57 29.25L159.57 29.25Q160.71 29.01 161.15 28.63Q161.58 28.26 161.58 27.27L161.58 27.27L161.58 13.83Q161.58 12.81 161.22 12.34Q160.86 11.88 159.78 11.64L159.78 11.64Q159.39 11.55 159.24 11.38Q159.09 11.22 159.09 11.01L159.09 11.01Q159.09 10.83 159.27 10.69Q159.45 10.56 159.75 10.56L159.75 10.56Q160.44 10.56 161.15 10.59Q161.85 10.62 162.53 10.66Q163.20 10.71 163.80 10.71L163.80 10.71Q164.52 10.71 165.08 10.63Q165.63 10.56 166.31 10.48Q166.98 10.41 167.94 10.41L167.94 10.41Q171.60 10.41 173.75 11.95Q175.89 13.50 175.89 16.20L175.89 16.20Q175.89 18.09 175.09 19.68Q174.30 21.27 172.69 22.24Q171.09 23.22 168.63 23.22L168.63 23.22Q167.85 23.22 167.44 22.98Q167.04 22.74 167.04 22.41L167.04 22.41Q167.04 22.20 167.24 22.06Q167.43 21.93 167.58 21.93L167.58 21.93Q167.91 21.93 168.15 22.00Q168.39 22.08 168.81 22.08L168.81 22.08Q170.07 22.08 170.72 20.67Q171.36 19.26 171.36 16.95L171.36 16.95Q171.36 14.19 170.46 12.96Q169.56 11.73 167.94 11.73L167.94 11.73Q167.10 11.73 166.67 12.10Q166.23 12.48 166.23 13.26L166.23 13.26L166.20 27.21Q166.20 28.17 166.71 28.57Q167.22 28.98 168.48 29.25L168.48 29.25Q168.81 29.31 168.97 29.44Q169.14 29.58 169.14 29.85L169.14 29.85Q169.14 30.06 168.99 30.18Q168.84 30.30 168.57 30.30L168.57 30.30Q167.91 30.30 167.06 30.25Q166.20 30.21 165.36 30.18Q164.52 30.15 163.92 30.15L163.92 30.15Q163.29 30.15 162.54 30.18Q161.79 30.21 161.00 30.25Q160.20 30.30 159.54 30.30ZM183.21 30.63L183.21 30.63Q181.92 30.63 180.72 30.33Q179.52 30.03 178.47 29.37L178.47 29.37Q178.29 29.22 178.11 29.04Q177.93 28.86 177.84 28.65L177.84 28.65Q177.54 27.84 177.44 26.67Q177.33 25.50 177.36 24.30L177.36 24.30Q177.36 24.09 177.54 24.00Q177.72 23.91 177.96 23.91L177.96 23.91Q178.26 23.91 178.37 23.98Q178.47 24.06 178.59 24.27L178.59 24.27Q179.25 26.52 180.56 27.90Q181.86 29.28 183.60 29.28L183.60 29.28Q184.56 29.28 185.18 28.84Q185.79 28.41 186.12 27.73Q186.45 27.06 186.45 26.37L186.45 26.37Q186.45 25.41 186.08 24.75Q185.70 24.09 184.95 23.55Q184.20 23.01 183.03 22.38L183.03 22.38Q181.77 21.66 180.60 20.86Q179.43 20.07 178.68 18.93Q177.93 17.79 177.93 16.08L177.93 16.08Q177.93 14.31 178.85 13.02Q179.76 11.73 181.35 11.01Q182.94 10.29 184.92 10.29L184.92 10.29Q186.06 10.29 187.10 10.53Q188.13 10.77 188.76 11.01L188.76 11.01Q189.12 11.16 189.29 11.34Q189.45 11.52 189.57 11.97L189.57 11.97Q189.72 12.60 189.83 13.50Q189.93 14.40 189.93 15.48L189.93 15.48Q189.93 15.87 189.39 15.87L189.39 15.87Q189.12 15.87 188.90 15.73Q188.67 15.60 188.61 15.39L188.61 15.39Q188.10 13.59 187.11 12.66Q186.12 11.73 184.68 11.73L184.68 11.73Q183.78 11.73 183.15 12.03Q182.52 12.33 182.21 12.93Q181.89 13.53 181.89 14.43L181.89 14.43Q181.89 15.15 182.39 15.76Q182.88 16.38 183.81 17.01Q184.74 17.64 185.94 18.36L185.94 18.36Q187.56 19.32 188.52 20.25Q189.48 21.18 189.92 22.21Q190.35 23.25 190.35 24.60L190.35 24.60Q190.35 26.64 189.47 27.99Q188.58 29.34 186.98 29.98Q185.37 30.63 183.21 30.63ZM205.14 30.63L205.14 30.63Q203.85 30.63 202.65 30.33Q201.45 30.03 200.40 29.37L200.40 29.37Q200.22 29.22 200.04 29.04Q199.86 28.86 199.77 28.65L199.77 28.65Q199.47 27.84 199.36 26.67Q199.26 25.50 199.29 24.30L199.29 24.30Q199.29 24.09 199.47 24.00Q199.65 23.91 199.89 23.91L199.89 23.91Q200.19 23.91 200.29 23.98Q200.40 24.06 200.52 24.27L200.52 24.27Q201.18 26.52 202.48 27.90Q203.79 29.28 205.53 29.28L205.53 29.28Q206.49 29.28 207.10 28.84Q207.72 28.41 208.05 27.73Q208.38 27.06 208.38 26.37L208.38 26.37Q208.38 25.41 208.00 24.75Q207.63 24.09 206.88 23.55Q206.13 23.01 204.96 22.38L204.96 22.38Q203.70 21.66 202.53 20.86Q201.36 20.07 200.61 18.93Q199.86 17.79 199.86 16.08L199.86 16.08Q199.86 14.31 200.78 13.02Q201.69 11.73 203.28 11.01Q204.87 10.29 206.85 10.29L206.85 10.29Q207.99 10.29 209.03 10.53Q210.06 10.77 210.69 11.01L210.69 11.01Q211.05 11.16 211.22 11.34Q211.38 11.52 211.50 11.97L211.50 11.97Q211.65 12.60 211.75 13.50Q211.86 14.40 211.86 15.48L211.86 15.48Q211.86 15.87 211.32 15.87L211.32 15.87Q211.05 15.87 210.82 15.73Q210.60 15.60 210.54 15.39L210.54 15.39Q210.03 13.59 209.04 12.66Q208.05 11.73 206.61 11.73L206.61 11.73Q205.71 11.73 205.08 12.03Q204.45 12.33 204.13 12.93Q203.82 13.53 203.82 14.43L203.82 14.43Q203.82 15.15 204.31 15.76Q204.81 16.38 205.74 17.01Q206.67 17.64 207.87 18.36L207.87 18.36Q209.49 19.32 210.45 20.25Q211.41 21.18 211.84 22.21Q212.28 23.25 212.28 24.60L212.28 24.60Q212.28 26.64 211.39 27.99Q210.51 29.34 208.91 29.98Q207.30 30.63 205.14 30.63ZM224.64 30.63L224.64 30.63Q222.57 30.63 220.69 29.92Q218.82 29.22 217.36 27.91Q215.91 26.61 215.08 24.79Q214.26 22.98 214.26 20.76L214.26 20.76Q214.26 18.72 214.93 16.84Q215.61 14.97 216.96 13.50Q218.31 12.03 220.30 11.16Q222.30 10.29 224.91 10.29L224.91 10.29Q227.01 10.29 228.88 10.99Q230.76 11.70 232.20 13.00Q233.64 14.31 234.48 16.13Q235.32 17.94 235.32 20.16L235.32 20.16Q235.32 22.17 234.63 24.06Q233.94 25.95 232.59 27.42Q231.24 28.89 229.24 29.76Q227.25 30.63 224.64 30.63ZM225.18 29.25L225.18 29.25Q226.89 29.25 228.04 28.29Q229.20 27.33 229.77 25.62Q230.34 23.91 230.34 21.69L230.34 21.69Q230.34 19.86 229.99 18.07Q229.65 16.29 228.91 14.85Q228.18 13.41 227.04 12.55Q225.90 11.70 224.34 11.70L224.34 11.70Q222.66 11.70 221.50 12.66Q220.35 13.62 219.78 15.30Q219.21 16.98 219.21 19.20L219.21 19.20Q219.21 21.06 219.57 22.84Q219.93 24.63 220.65 26.07Q221.37 27.51 222.49 28.38Q223.62 29.25 225.18 29.25ZM237.45 30.36L237.45 30.36Q237.15 30.36 236.98 30.22Q236.82 30.09 236.82 29.91L236.82 29.91Q236.82 29.70 237 29.53Q237.18 29.37 237.45 29.28L237.45 29.28Q238.47 29.01 238.91 28.65Q239.34 28.29 239.34 27.36L239.34 27.36L239.34 13.62Q239.34 12.96 239.19 12.60Q239.04 12.24 238.62 12.03Q238.20 11.82 237.39 11.64L237.39 11.64Q236.76 11.49 236.76 11.01L236.76 11.01Q236.76 10.80 236.94 10.68Q237.12 10.56 237.36 10.56L237.36 10.56Q238.05 10.56 238.81 10.59Q239.58 10.62 240.31 10.66Q241.05 10.71 241.65 10.71L241.65 10.71Q242.28 10.71 243.06 10.68Q243.84 10.65 244.66 10.62Q245.49 10.59 246.15 10.59L246.15 10.59Q246.42 10.59 246.56 10.69Q246.69 10.80 246.69 11.01L246.69 11.01Q246.69 11.31 246.53 11.43Q246.36 11.55 246.06 11.64L246.06 11.64Q244.83 11.97 244.40 12.34Q243.96 12.72 243.96 13.62L243.96 13.62L243.96 27.12Q243.96 27.96 244.34 28.32Q244.71 28.68 245.58 28.68L245.58 28.68L248.64 28.68Q249.30 28.68 249.82 28.45Q250.35 28.23 250.77 27.87L250.77 27.87Q251.28 27.39 251.67 26.77Q252.06 26.16 252.36 25.50L252.36 25.50Q252.66 24.90 252.82 24.72Q252.99 24.54 253.17 24.54L253.17 24.54Q253.41 24.54 253.50 24.75Q253.59 24.96 253.59 25.14L253.59 25.14Q253.59 25.20 253.53 25.41Q253.47 25.62 253.47 25.74L253.47 25.74Q253.26 26.61 253.08 27.25Q252.90 27.90 252.79 28.48Q252.69 29.07 252.60 29.79L252.60 29.79Q252.57 30.00 252.47 30.18Q252.36 30.36 252.12 30.36L252.12 30.36Q251.49 30.36 250.29 30.33Q249.09 30.30 247.60 30.28Q246.12 30.27 244.57 30.24Q243.03 30.21 241.71 30.21L241.71 30.21Q241.08 30.21 240.27 30.24Q239.46 30.27 238.69 30.31Q237.93 30.36 237.45 30.36ZM264.96 30.63L264.96 30.63Q262.14 30.63 260.25 29.62Q258.36 28.62 257.41 26.82Q256.47 25.02 256.47 22.62L256.47 22.62L256.47 14.07Q256.47 13.23 256.08 12.54Q255.69 11.85 254.94 11.67L254.94 11.67Q254.10 11.43 254.10 11.01L254.10 11.01Q254.10 10.80 254.32 10.68Q254.55 10.56 254.88 10.56L254.88 10.56Q255.84 10.56 256.86 10.63Q257.88 10.71 258.78 10.71L258.78 10.71Q259.62 10.71 260.81 10.65Q261.99 10.59 262.83 10.59L262.83 10.59Q263.19 10.59 263.41 10.69Q263.64 10.80 263.64 11.04L263.64 11.04Q263.64 11.37 263.19 11.52Q262.74 11.67 262.23 11.91L262.23 11.91Q261.78 12.09 261.45 12.64Q261.12 13.20 261.12 14.22L261.12 14.22L261.12 22.08Q261.12 24.12 261.78 25.44Q262.44 26.76 263.53 27.39Q264.63 28.02 265.98 28.02L265.98 28.02Q268.71 28.02 270.04 26.40Q271.38 24.78 271.38 21.45L271.38 21.45Q271.38 20.67 271.39 19.70Q271.41 18.72 271.41 17.68Q271.41 16.65 271.38 15.72L271.38 15.72Q271.35 14.37 271.19 13.62Q271.02 12.87 270.69 12.45Q270.36 12.03 269.79 11.76L269.79 11.76Q269.46 11.58 269.02 11.44Q268.59 11.31 268.59 11.04L268.59 11.04Q268.59 10.80 268.83 10.71Q269.07 10.62 269.49 10.62L269.49 10.62Q270.57 10.62 271.13 10.65Q271.68 10.68 272.37 10.68L272.37 10.68Q272.94 10.68 273.31 10.65Q273.69 10.62 274.09 10.59Q274.50 10.56 275.07 10.56L275.07 10.56Q275.43 10.56 275.64 10.65Q275.85 10.74 275.85 11.01L275.85 11.01Q275.85 11.40 275.04 11.64L275.04 11.64Q274.05 11.91 273.64 12.55Q273.24 13.20 273.18 14.28L273.18 14.28Q273.09 16.56 273.06 18.46Q273.03 20.37 273.03 22.35L273.03 22.35Q273 24.78 271.94 26.65Q270.87 28.53 269.04 29.58Q267.21 30.63 264.96 30.63ZM282.30 30.30L282.30 30.30Q282.09 30.30 281.85 30.19Q281.61 30.09 281.61 29.88L281.61 29.88Q281.61 29.61 281.82 29.46Q282.03 29.31 282.33 29.25L282.33 29.25Q283.47 29.01 284.00 28.62Q284.52 28.23 284.52 27.27L284.52 27.27L284.52 14.88Q284.52 13.71 284.46 13.15Q284.40 12.60 284.30 12.40Q284.19 12.21 284.04 12.15L284.04 12.15Q283.77 12.00 283.33 11.98Q282.90 11.97 282.63 11.97L282.63 11.97L281.97 11.97Q281.01 11.97 280.16 12.43Q279.30 12.90 278.79 13.59L278.79 13.59Q278.64 13.80 278.36 14.17Q278.07 14.55 277.75 14.83Q277.44 15.12 277.14 15.12L277.14 15.12Q276.90 15.12 276.81 14.95Q276.72 14.79 276.72 14.58L276.72 14.58Q276.72 14.22 276.90 13.83L276.90 13.83Q277.47 12.69 277.74 11.88Q278.01 11.07 278.10 10.02L278.10 10.02Q278.16 9.57 278.37 9.40Q278.58 9.24 278.85 9.24L278.85 9.24Q279.06 9.24 279.30 9.63Q279.54 10.02 279.81 10.26L279.81 10.26Q280.11 10.50 280.81 10.62Q281.52 10.74 281.97 10.74L281.97 10.74L293.25 10.74Q294 10.74 294.52 10.59Q295.05 10.44 295.32 10.29L295.32 10.29Q295.80 10.02 296.08 9.69Q296.37 9.36 296.76 9.36L296.76 9.36Q296.94 9.36 297.01 9.49Q297.09 9.63 297.09 9.87L297.09 9.87Q297.09 9.99 297.07 10.17Q297.06 10.35 297.03 10.50L297.03 10.50Q296.88 11.07 296.73 11.59Q296.58 12.12 296.49 12.60Q296.40 13.08 296.40 13.59L296.40 13.59L296.40 14.19Q296.40 14.67 296.30 14.97Q296.19 15.27 295.89 15.27L295.89 15.27Q295.62 15.27 295.44 14.98Q295.26 14.70 295.05 14.07L295.05 14.07Q294.72 12.99 294.07 12.48Q293.43 11.97 292.11 11.97L292.11 11.97L290.55 11.97Q290.04 11.97 289.73 12.19Q289.41 12.42 289.26 13.09Q289.11 13.77 289.11 15.15L289.11 15.15L289.11 27.24Q289.11 28.14 289.61 28.54Q290.10 28.95 291.27 29.25L291.27 29.25Q291.57 29.34 291.78 29.46Q291.99 29.58 291.99 29.85L291.99 29.85Q291.99 30.06 291.81 30.18Q291.63 30.30 291.36 30.30L291.36 30.30Q290.70 30.30 289.88 30.25Q289.05 30.21 288.23 30.18Q287.40 30.15 286.80 30.15L286.80 30.15Q286.17 30.15 285.38 30.18Q284.58 30.21 283.79 30.25Q282.99 30.30 282.30 30.30ZM298.05 30.30L298.05 30.30Q297.81 30.30 297.63 30.19Q297.45 30.09 297.45 29.88L297.45 29.88Q297.45 29.40 298.08 29.25L298.08 29.25Q299.22 29.01 299.67 28.63Q300.12 28.26 300.12 27.30L300.12 27.30L300.12 13.68Q300.12 12.72 299.73 12.31Q299.34 11.91 298.14 11.64L298.14 11.64Q297.51 11.49 297.51 11.01L297.51 11.01Q297.51 10.80 297.69 10.68Q297.87 10.56 298.11 10.56L298.11 10.56Q298.80 10.56 299.57 10.59Q300.33 10.62 301.07 10.66Q301.80 10.71 302.43 10.71L302.43 10.71Q303.03 10.71 303.80 10.68Q304.56 10.65 305.36 10.62Q306.15 10.59 306.81 10.59L306.81 10.59Q307.08 10.59 307.23 10.69Q307.38 10.80 307.38 11.01L307.38 11.01Q307.38 11.31 307.22 11.43Q307.05 11.55 306.72 11.64L306.72 11.64Q305.52 11.97 305.13 12.37Q304.74 12.78 304.74 13.71L304.74 13.71L304.74 27.27Q304.74 28.14 305.18 28.54Q305.61 28.95 306.78 29.25L306.78 29.25Q307.08 29.34 307.25 29.46Q307.41 29.58 307.41 29.85L307.41 29.85Q307.41 30.06 307.28 30.18Q307.14 30.30 306.87 30.30L306.87 30.30Q306.21 30.30 305.40 30.25Q304.59 30.21 303.81 30.18Q303.03 30.15 302.43 30.15L302.43 30.15Q301.80 30.15 301.05 30.18Q300.30 30.21 299.52 30.25Q298.74 30.30 298.05 30.30ZM319.14 30.63L319.14 30.63Q317.07 30.63 315.20 29.92Q313.32 29.22 311.87 27.91Q310.41 26.61 309.59 24.79Q308.76 22.98 308.76 20.76L308.76 20.76Q308.76 18.72 309.44 16.84Q310.11 14.97 311.46 13.50Q312.81 12.03 314.81 11.16Q316.80 10.29 319.41 10.29L319.41 10.29Q321.51 10.29 323.39 10.99Q325.26 11.70 326.70 13.00Q328.14 14.31 328.98 16.13Q329.82 17.94 329.82 20.16L329.82 20.16Q329.82 22.17 329.13 24.06Q328.44 25.95 327.09 27.42Q325.74 28.89 323.75 29.76Q321.75 30.63 319.14 30.63ZM319.68 29.25L319.68 29.25Q321.39 29.25 322.55 28.29Q323.70 27.33 324.27 25.62Q324.84 23.91 324.84 21.69L324.84 21.69Q324.84 19.86 324.50 18.07Q324.15 16.29 323.42 14.85Q322.68 13.41 321.54 12.55Q320.40 11.70 318.84 11.70L318.84 11.70Q317.16 11.70 316.01 12.66Q314.85 13.62 314.28 15.30Q313.71 16.98 313.71 19.20L313.71 19.20Q313.71 21.06 314.07 22.84Q314.43 24.63 315.15 26.07Q315.87 27.51 317.00 28.38Q318.12 29.25 319.68 29.25ZM351.09 30.78L351.09 30.78Q350.70 30.78 349.83 30.31Q348.96 29.85 348.03 28.68L348.03 28.68Q347.31 27.93 346.53 27.06Q345.75 26.19 344.88 25.26Q344.01 24.33 343.13 23.37Q342.24 22.41 341.37 21.46Q340.50 20.52 339.63 19.59Q338.76 18.66 337.98 17.79Q337.20 16.92 336.48 16.17L336.48 16.17Q336.42 16.05 336.29 15.94Q336.15 15.84 336.09 15.84L336.09 15.84Q335.97 15.84 335.93 16.05Q335.88 16.26 335.88 16.41L335.88 16.41Q335.85 17.79 335.88 19.65Q335.91 21.51 335.96 23.41Q336.00 25.32 336.00 26.88L336.00 26.88Q336.00 27.84 336.60 28.39Q337.20 28.95 338.37 29.25L338.37 29.25Q338.70 29.31 338.96 29.44Q339.21 29.58 339.21 29.85L339.21 29.85Q339.21 30.06 338.97 30.18Q338.73 30.30 338.46 30.30L338.46 30.30Q337.65 30.30 337.14 30.25Q336.63 30.21 336.20 30.19Q335.76 30.18 335.13 30.18L335.13 30.18Q334.47 30.18 333.89 30.21Q333.30 30.24 332.90 30.27Q332.49 30.30 332.34 30.30L332.34 30.30Q332.13 30.30 331.88 30.19Q331.62 30.09 331.62 29.88L331.62 29.88Q331.62 29.61 331.86 29.49Q332.10 29.37 332.40 29.25L332.40 29.25Q333.12 28.98 333.50 28.35Q333.87 27.72 333.93 26.79L333.93 26.79Q334.05 25.68 334.19 23.85Q334.32 22.02 334.44 19.72Q334.56 17.43 334.56 14.97L334.56 14.97Q334.56 13.41 333.77 12.72Q332.97 12.03 331.83 11.61L331.83 11.61Q331.59 11.55 331.29 11.38Q330.99 11.22 330.99 10.95L330.99 10.95Q330.99 10.68 331.23 10.57Q331.47 10.47 331.77 10.47L331.77 10.47Q332.31 10.47 332.99 10.50Q333.66 10.53 334.41 10.54Q335.16 10.56 335.97 10.59Q336.78 10.62 337.59 10.62L337.59 10.62Q337.83 10.62 337.97 10.71Q338.10 10.80 338.22 10.95L338.22 10.95Q338.88 11.70 339.65 12.57Q340.41 13.44 341.25 14.38Q342.09 15.33 342.96 16.30Q343.83 17.28 344.69 18.27Q345.54 19.26 346.37 20.19Q347.19 21.12 347.97 21.99Q348.75 22.86 349.41 23.61L349.41 23.61Q349.50 23.73 349.64 23.86Q349.77 24.00 349.89 24.00L349.89 24.00Q350.13 24.00 350.13 23.55L350.13 23.55Q350.13 22.62 350.15 21.39Q350.16 20.16 350.16 18.78Q350.16 17.40 350.15 16.05Q350.13 14.70 350.07 13.56L350.07 13.56Q350.04 12.75 349.46 12.34Q348.87 11.94 347.85 11.67L347.85 11.67Q347.52 11.61 347.28 11.46Q347.04 11.31 347.04 11.04L347.04 11.04Q347.04 10.83 347.28 10.72Q347.52 10.62 347.79 10.62L347.79 10.62Q348.48 10.62 348.96 10.63Q349.44 10.65 349.83 10.65Q350.22 10.65 350.70 10.65L350.70 10.65Q351.30 10.65 351.72 10.63Q352.14 10.62 352.64 10.59Q353.13 10.56 353.91 10.56L353.91 10.56Q354.27 10.56 354.47 10.68Q354.66 10.80 354.66 11.01L354.66 11.01Q354.66 11.46 353.88 11.61L353.88 11.61Q352.83 11.82 352.38 12.21Q351.93 12.60 351.90 13.47L351.90 13.47Q351.90 14.55 351.89 15.78Q351.87 17.01 351.81 18.30Q351.75 19.59 351.71 20.86Q351.66 22.14 351.63 23.31Q351.60 24.48 351.60 25.47L351.60 25.47Q351.60 26.16 351.69 26.98Q351.78 27.81 351.86 28.48Q351.93 29.16 351.93 29.43L351.93 29.43Q351.93 30.18 351.71 30.48Q351.48 30.78 351.09 30.78ZM361.53 30.63L361.53 30.63Q360.24 30.63 359.04 30.33Q357.84 30.03 356.79 29.37L356.79 29.37Q356.61 29.22 356.43 29.04Q356.25 28.86 356.16 28.65L356.16 28.65Q355.86 27.84 355.76 26.67Q355.65 25.50 355.68 24.30L355.68 24.30Q355.68 24.09 355.86 24.00Q356.04 23.91 356.28 23.91L356.28 23.91Q356.58 23.91 356.69 23.98Q356.79 24.06 356.91 24.27L356.91 24.27Q357.57 26.52 358.88 27.90Q360.18 29.28 361.92 29.28L361.92 29.28Q362.88 29.28 363.50 28.84Q364.11 28.41 364.44 27.73Q364.77 27.06 364.77 26.37L364.77 26.37Q364.77 25.41 364.40 24.75Q364.02 24.09 363.27 23.55Q362.52 23.01 361.35 22.38L361.35 22.38Q360.09 21.66 358.92 20.86Q357.75 20.07 357.00 18.93Q356.25 17.79 356.25 16.08L356.25 16.08Q356.25 14.31 357.17 13.02Q358.08 11.73 359.67 11.01Q361.26 10.29 363.24 10.29L363.24 10.29Q364.38 10.29 365.42 10.53Q366.45 10.77 367.08 11.01L367.08 11.01Q367.44 11.16 367.61 11.34Q367.77 11.52 367.89 11.97L367.89 11.97Q368.04 12.60 368.15 13.50Q368.25 14.40 368.25 15.48L368.25 15.48Q368.25 15.87 367.71 15.87L367.71 15.87Q367.44 15.87 367.22 15.73Q366.99 15.60 366.93 15.39L366.93 15.39Q366.42 13.59 365.43 12.66Q364.44 11.73 363.00 11.73L363.00 11.73Q362.10 11.73 361.47 12.03Q360.84 12.33 360.53 12.93Q360.21 13.53 360.21 14.43L360.21 14.43Q360.21 15.15 360.71 15.76Q361.20 16.38 362.13 17.01Q363.06 17.64 364.26 18.36L364.26 18.36Q365.88 19.32 366.84 20.25Q367.80 21.18 368.24 22.21Q368.67 23.25 368.67 24.60L368.67 24.60Q368.67 26.64 367.79 27.99Q366.90 29.34 365.30 29.98Q363.69 30.63 361.53 30.63Z"
                transform="translate(0, 0)"></path>
        </g>
    </svg></svg>