<svg xmlns="http://www.w3.org/2000/svg" y="323"
    viewBox="-0.12000000476837158 9.239999771118164 368.7900085449219 21.600000381469727" x="103" style="overflow: visible;">
    <g fill="#e9be74" fill-opacity="1" style="">
        <path
            d="M0.66 30.36L0.66 30.36Q0.33 30.36 0.10 30.25Q-0.12 30.15-0.12 29.88L-0.12 29.88Q-0.12 29.58 0.07 29.44Q0.27 29.31 0.60 29.22L0.60 29.22Q1.47 28.98 2.11 28.47Q2.76 27.96 3.09 27.21L3.09 27.21Q3.84 25.53 4.50 23.89Q5.16 22.26 5.79 20.65Q6.42 19.05 7.05 17.38Q7.68 15.72 8.31 14.01L8.31 14.01Q8.76 12.78 8.88 12.22Q9 11.67 9.06 11.58L9.06 11.58Q9.60 11.43 10.08 11.31Q10.56 11.19 11.10 10.98L11.10 10.98Q11.64 10.77 12.01 10.44Q12.39 10.11 12.57 9.93L12.57 9.93Q12.69 9.84 12.81 9.82Q12.93 9.81 13.05 10.02L13.05 10.02Q13.14 10.20 13.21 10.39Q13.29 10.59 13.35 10.83L13.35 10.83Q13.98 12.84 14.64 14.92Q15.30 17.01 15.97 19.08Q16.65 21.15 17.31 23.17Q17.97 25.20 18.60 27.12L18.60 27.12Q18.78 27.72 19.15 28.14Q19.53 28.56 20.01 28.80Q20.49 29.04 21.09 29.22L21.09 29.22Q21.42 29.31 21.61 29.44Q21.81 29.58 21.81 29.85L21.81 29.85Q21.81 30.06 21.63 30.18Q21.45 30.30 21.21 30.30L21.21 30.30Q20.61 30.30 19.72 30.25Q18.84 30.21 17.94 30.18Q17.04 30.15 16.35 30.15L16.35 30.15Q15.78 30.15 14.96 30.18Q14.13 30.21 13.29 30.24Q12.45 30.27 11.85 30.27L11.85 30.27Q11.58 30.27 11.38 30.16Q11.19 30.06 11.19 29.85L11.19 29.85Q11.19 29.58 11.40 29.43Q11.61 29.28 11.91 29.22L11.91 29.22Q13.02 28.98 13.53 28.59Q14.04 28.20 13.86 27.42L13.86 27.42Q13.74 26.85 13.56 26.22Q13.38 25.59 13.21 24.94Q13.05 24.30 12.87 23.70L12.87 23.70Q12.81 23.46 12.72 23.34Q12.63 23.22 12.36 23.22L12.36 23.22L7.05 23.22Q6.84 23.22 6.72 23.34Q6.60 23.46 6.54 23.73L6.54 23.73Q6.42 24.15 6.27 24.57Q6.12 24.99 5.98 25.41Q5.85 25.83 5.73 26.25Q5.61 26.67 5.49 27.06L5.49 27.06Q5.28 27.96 5.67 28.44Q6.06 28.92 7.35 29.22L7.35 29.22Q8.07 29.37 8.07 29.85L8.07 29.85Q8.07 30.06 7.90 30.16Q7.74 30.27 7.38 30.27L7.38 30.27Q6.51 30.27 5.76 30.22Q5.01 30.18 4.11 30.18L4.11 30.18Q3.21 30.18 2.40 30.27Q1.59 30.36 0.66 30.36ZM7.89 21.60L7.89 21.60L11.79 21.60Q12.24 21.60 12.24 21.39L12.24 21.39Q12.24 21.30 12.22 21.24Q12.21 21.18 12.18 21.09L12.18 21.09L10.17 14.31Q10.08 13.98 9.99 13.98L9.99 13.98Q9.93 13.98 9.78 14.31L9.78 14.31L7.41 21.09Q7.35 21.21 7.35 21.33L7.35 21.33Q7.35 21.48 7.51 21.54Q7.68 21.60 7.89 21.60ZM22.83 30.36L22.83 30.36Q22.53 30.36 22.36 30.22Q22.20 30.09 22.20 29.91L22.20 29.91Q22.20 29.46 22.86 29.28L22.86 29.28Q23.88 29.01 24.31 28.65Q24.75 28.29 24.75 27.33L24.75 27.33L24.75 13.68Q24.75 12.72 24.36 12.30Q23.97 11.88 22.89 11.64L22.89 11.64Q22.50 11.55 22.35 11.38Q22.20 11.22 22.20 11.01L22.20 11.01Q22.20 10.83 22.38 10.69Q22.56 10.56 22.86 10.56L22.86 10.56Q23.61 10.56 24.39 10.59Q25.17 10.62 25.92 10.66Q26.67 10.71 27.36 10.71L27.36 10.71Q28.92 10.71 30.69 10.68Q32.46 10.65 33.84 10.62L33.84 10.62Q34.80 10.62 35.43 10.51Q36.06 10.41 36.18 10.41L36.18 10.41Q36.39 10.41 36.64 10.54Q36.90 10.68 36.93 10.98L36.93 10.98Q37.05 12.06 37.23 13.08Q37.41 14.10 37.41 14.88L37.41 14.88Q37.41 15.15 37.29 15.30Q37.17 15.45 37.02 15.45L37.02 15.45Q36.87 15.45 36.70 15.33Q36.54 15.21 36.45 14.97L36.45 14.97Q36.15 14.22 35.91 13.68Q35.67 13.14 35.37 12.81L35.37 12.81Q35.01 12.48 34.50 12.18Q33.99 11.88 33.21 11.88L33.21 11.88L30.96 11.88Q30.30 11.88 29.82 12.22Q29.34 12.57 29.34 13.20L29.34 13.20L29.34 18.87Q29.34 19.23 29.55 19.41Q29.76 19.59 30.09 19.59L30.09 19.59L32.73 19.59Q33.51 19.59 33.85 19.06Q34.20 18.54 34.47 17.79L34.47 17.79Q34.68 17.22 35.07 17.22L35.07 17.22Q35.22 17.22 35.34 17.38Q35.46 17.55 35.43 17.88L35.43 17.88Q35.40 18.24 35.37 18.66Q35.34 19.08 35.32 19.50Q35.31 19.92 35.31 20.31L35.31 20.31Q35.31 20.67 35.32 21.09Q35.34 21.51 35.35 21.93Q35.37 22.35 35.40 22.74L35.40 22.74Q35.46 23.16 35.37 23.35Q35.28 23.55 35.10 23.55L35.10 23.55Q34.62 23.55 34.41 22.77L34.41 22.77Q34.14 21.87 33.81 21.39Q33.48 20.91 32.88 20.91L32.88 20.91L30.09 20.91Q29.73 20.91 29.53 21.07Q29.34 21.24 29.34 21.60L29.34 21.60L29.34 27.30Q29.34 28.20 29.73 28.56Q30.12 28.92 30.93 28.92L30.93 28.92L33.51 28.92Q34.17 28.92 34.77 28.77Q35.37 28.62 35.79 28.26L35.79 28.26Q36.30 27.84 36.72 27.21Q37.14 26.58 37.50 25.86L37.50 25.86Q37.62 25.65 37.75 25.57Q37.89 25.50 38.07 25.50L38.07 25.50Q38.22 25.50 38.30 25.68Q38.37 25.86 38.37 26.07L38.37 26.07Q38.37 26.58 38.22 27.21Q38.07 27.84 37.84 28.54Q37.62 29.25 37.41 29.94L37.41 29.94Q37.35 30.15 37.16 30.24Q36.96 30.33 36.75 30.33L36.75 30.33Q36.36 30.33 35.30 30.31Q34.23 30.30 32.79 30.27Q31.35 30.24 29.82 30.22Q28.29 30.21 26.97 30.21L26.97 30.21Q26.37 30.21 25.65 30.24Q24.93 30.27 24.19 30.31Q23.46 30.36 22.83 30.36ZM58.20 30.84L58.20 30.84Q56.67 30.84 55.62 30.46Q54.57 30.09 53.83 29.47Q53.10 28.86 52.53 28.08L52.53 28.08Q51.87 27.21 51.25 26.34Q50.64 25.47 50.04 24.45Q49.44 23.43 48.78 22.11L48.78 22.11Q48.48 21.45 47.97 21.18L47.97 21.18Q47.70 21 47.43 20.94Q47.16 20.88 46.95 20.88L46.95 20.88Q46.80 20.88 46.71 21.04Q46.62 21.21 46.62 21.48L46.62 21.48L46.62 27.21Q46.62 28.14 47.13 28.56Q47.64 28.98 48.90 29.25L48.90 29.25Q49.23 29.31 49.39 29.44Q49.56 29.58 49.56 29.85L49.56 29.85Q49.56 30.06 49.41 30.18Q49.26 30.30 48.99 30.30L48.99 30.30Q48.33 30.30 47.47 30.25Q46.62 30.21 45.78 30.18Q44.94 30.15 44.34 30.15L44.34 30.15Q43.71 30.15 42.96 30.18Q42.21 30.21 41.41 30.25Q40.62 30.30 39.96 30.30L39.96 30.30Q39.72 30.30 39.54 30.19Q39.36 30.09 39.36 29.88L39.36 29.88Q39.36 29.40 39.99 29.25L39.99 29.25Q41.13 29.01 41.56 28.63Q42.00 28.26 42.00 27.27L42.00 27.27L42.00 13.80Q42.00 13.08 41.86 12.66Q41.73 12.24 41.34 12.01Q40.95 11.79 40.20 11.64L40.20 11.64Q39.81 11.55 39.66 11.38Q39.51 11.22 39.51 11.01L39.51 11.01Q39.51 10.83 39.69 10.69Q39.87 10.56 40.17 10.56L40.17 10.56Q41.13 10.56 41.74 10.62Q42.36 10.68 42.91 10.72Q43.47 10.77 44.22 10.77L44.22 10.77Q44.91 10.77 45.43 10.69Q45.96 10.62 46.63 10.56Q47.31 10.50 48.36 10.50L48.36 10.50Q51.87 10.50 53.76 11.70Q55.65 12.90 55.65 15.33L55.65 15.33Q55.65 16.68 55.06 17.59Q54.48 18.51 53.59 19.09Q52.71 19.68 51.81 19.98L51.81 19.98Q51.69 20.01 51.70 20.11Q51.72 20.22 51.78 20.34L51.78 20.34Q52.68 21.66 53.53 22.90Q54.39 24.15 55.29 25.21Q56.19 26.28 57.15 27.18L57.15 27.18Q58.17 28.14 59.23 28.30Q60.30 28.47 61.35 28.47L61.35 28.47Q61.80 28.47 61.80 29.01L61.80 29.01Q61.80 29.67 61.33 30.07Q60.87 30.48 60.06 30.66Q59.25 30.84 58.20 30.84ZM47.76 19.92L47.76 19.92Q48.90 19.92 49.65 19.41Q50.40 18.90 50.79 18.01Q51.18 17.13 51.18 15.99L51.18 15.99Q51.18 14.61 50.82 13.68Q50.46 12.75 49.74 12.28Q49.02 11.82 47.88 11.82L47.88 11.82Q47.22 11.82 46.93 12.34Q46.65 12.87 46.65 14.58L46.65 14.58Q46.62 15.27 46.62 16.32Q46.62 17.37 46.62 18.81L46.62 18.81Q46.62 19.41 46.93 19.66Q47.25 19.92 47.76 19.92ZM72.90 30.63L72.90 30.63Q70.83 30.63 68.95 29.92Q67.08 29.22 65.62 27.91Q64.17 26.61 63.34 24.79Q62.52 22.98 62.52 20.76L62.52 20.76Q62.52 18.72 63.19 16.84Q63.87 14.97 65.22 13.50Q66.57 12.03 68.56 11.16Q70.56 10.29 73.17 10.29L73.17 10.29Q75.27 10.29 77.14 10.99Q79.02 11.70 80.46 13.00Q81.90 14.31 82.74 16.13Q83.58 17.94 83.58 20.16L83.58 20.16Q83.58 22.17 82.89 24.06Q82.20 25.95 80.85 27.42Q79.50 28.89 77.50 29.76Q75.51 30.63 72.90 30.63ZM73.44 29.25L73.44 29.25Q75.15 29.25 76.30 28.29Q77.46 27.33 78.03 25.62Q78.60 23.91 78.60 21.69L78.60 21.69Q78.60 19.86 78.25 18.07Q77.91 16.29 77.17 14.85Q76.44 13.41 75.30 12.55Q74.16 11.70 72.60 11.70L72.60 11.70Q70.92 11.70 69.76 12.66Q68.61 13.62 68.04 15.30Q67.47 16.98 67.47 19.20L67.47 19.20Q67.47 21.06 67.83 22.84Q68.19 24.63 68.91 26.07Q69.63 27.51 70.75 28.38Q71.88 29.25 73.44 29.25ZM103.71 30.63L103.71 30.63Q101.37 30.63 99.33 29.92Q97.29 29.22 95.73 27.91Q94.17 26.61 93.30 24.78Q92.43 22.95 92.43 20.73L92.43 20.73Q92.43 18.66 93.25 16.78Q94.08 14.91 95.67 13.45Q97.26 12.00 99.49 11.14Q101.73 10.29 104.55 10.29L104.55 10.29Q105.51 10.29 106.48 10.42Q107.46 10.56 108.37 10.80Q109.29 11.04 110.04 11.31L110.04 11.31Q110.31 11.43 110.50 11.62Q110.70 11.82 110.73 12.18L110.73 12.18Q110.85 13.17 110.91 14.10Q110.97 15.03 110.97 15.78L110.97 15.78Q110.97 16.11 110.73 16.23Q110.49 16.35 110.20 16.24Q109.92 16.14 109.80 15.78L109.80 15.78Q109.59 15.09 109.30 14.40Q109.02 13.71 108.45 13.20L108.45 13.20Q107.85 12.60 106.78 12.21Q105.72 11.82 104.22 11.82L104.22 11.82Q102.69 11.82 101.44 12.48Q100.20 13.14 99.31 14.28Q98.43 15.42 97.95 16.86Q97.47 18.30 97.47 19.86L97.47 19.86Q97.47 21.84 97.89 23.53Q98.31 25.23 99.18 26.46Q100.05 27.69 101.31 28.38Q102.57 29.07 104.28 29.07L104.28 29.07Q106.50 29.07 107.88 28.12Q109.26 27.18 110.19 25.23L110.19 25.23Q110.43 24.69 110.86 24.72Q111.30 24.75 111.30 25.23L111.30 25.23Q111.30 25.62 111.22 26.17Q111.15 26.73 111.00 27.36Q110.85 27.99 110.64 28.65L110.64 28.65Q110.52 29.01 110.32 29.20Q110.13 29.40 109.83 29.55L109.83 29.55Q108.69 30.03 107.13 30.33Q105.57 30.63 103.71 30.63ZM124.08 30.63L124.08 30.63Q122.01 30.63 120.13 29.92Q118.26 29.22 116.80 27.91Q115.35 26.61 114.52 24.79Q113.70 22.98 113.70 20.76L113.70 20.76Q113.70 18.72 114.37 16.84Q115.05 14.97 116.40 13.50Q117.75 12.03 119.74 11.16Q121.74 10.29 124.35 10.29L124.35 10.29Q126.45 10.29 128.32 10.99Q130.20 11.70 131.64 13.00Q133.08 14.31 133.92 16.13Q134.76 17.94 134.76 20.16L134.76 20.16Q134.76 22.17 134.07 24.06Q133.38 25.95 132.03 27.42Q130.68 28.89 128.68 29.76Q126.69 30.63 124.08 30.63ZM124.62 29.25L124.62 29.25Q126.33 29.25 127.48 28.29Q128.64 27.33 129.21 25.62Q129.78 23.91 129.78 21.69L129.78 21.69Q129.78 19.86 129.43 18.07Q129.09 16.29 128.35 14.85Q127.62 13.41 126.48 12.55Q125.34 11.70 123.78 11.70L123.78 11.70Q122.10 11.70 120.94 12.66Q119.79 13.62 119.22 15.30Q118.65 16.98 118.65 19.20L118.65 19.20Q118.65 21.06 119.01 22.84Q119.37 24.63 120.09 26.07Q120.81 27.51 121.93 28.38Q123.06 29.25 124.62 29.25ZM154.98 30.84L154.98 30.84Q153.45 30.84 152.40 30.46Q151.35 30.09 150.62 29.47Q149.88 28.86 149.31 28.08L149.31 28.08Q148.65 27.21 148.03 26.34Q147.42 25.47 146.82 24.45Q146.22 23.43 145.56 22.11L145.56 22.11Q145.26 21.45 144.75 21.18L144.75 21.18Q144.48 21 144.21 20.94Q143.94 20.88 143.73 20.88L143.73 20.88Q143.58 20.88 143.49 21.04Q143.40 21.21 143.40 21.48L143.40 21.48L143.40 27.21Q143.40 28.14 143.91 28.56Q144.42 28.98 145.68 29.25L145.68 29.25Q146.01 29.31 146.17 29.44Q146.34 29.58 146.34 29.85L146.34 29.85Q146.34 30.06 146.19 30.18Q146.04 30.30 145.77 30.30L145.77 30.30Q145.11 30.30 144.25 30.25Q143.40 30.21 142.56 30.18Q141.72 30.15 141.12 30.15L141.12 30.15Q140.49 30.15 139.74 30.18Q138.99 30.21 138.19 30.25Q137.40 30.30 136.74 30.30L136.74 30.30Q136.50 30.30 136.32 30.19Q136.14 30.09 136.14 29.88L136.14 29.88Q136.14 29.40 136.77 29.25L136.77 29.25Q137.91 29.01 138.34 28.63Q138.78 28.26 138.78 27.27L138.78 27.27L138.78 13.80Q138.78 13.08 138.64 12.66Q138.51 12.24 138.12 12.01Q137.73 11.79 136.98 11.64L136.98 11.64Q136.59 11.55 136.44 11.38Q136.29 11.22 136.29 11.01L136.29 11.01Q136.29 10.83 136.47 10.69Q136.65 10.56 136.95 10.56L136.95 10.56Q137.91 10.56 138.53 10.62Q139.14 10.68 139.69 10.72Q140.25 10.77 141 10.77L141 10.77Q141.69 10.77 142.22 10.69Q142.74 10.62 143.41 10.56Q144.09 10.50 145.14 10.50L145.14 10.50Q148.65 10.50 150.54 11.70Q152.43 12.90 152.43 15.33L152.43 15.33Q152.43 16.68 151.84 17.59Q151.26 18.51 150.38 19.09Q149.49 19.68 148.59 19.98L148.59 19.98Q148.47 20.01 148.48 20.11Q148.50 20.22 148.56 20.34L148.56 20.34Q149.46 21.66 150.31 22.90Q151.17 24.15 152.07 25.21Q152.97 26.28 153.93 27.18L153.93 27.18Q154.95 28.14 156.01 28.30Q157.08 28.47 158.13 28.47L158.13 28.47Q158.58 28.47 158.58 29.01L158.58 29.01Q158.58 29.67 158.12 30.07Q157.65 30.48 156.84 30.66Q156.03 30.84 154.98 30.84ZM144.54 19.92L144.54 19.92Q145.68 19.92 146.43 19.41Q147.18 18.90 147.57 18.01Q147.96 17.13 147.96 15.99L147.96 15.99Q147.96 14.61 147.60 13.68Q147.24 12.75 146.52 12.28Q145.80 11.82 144.66 11.82L144.66 11.82Q144 11.82 143.72 12.34Q143.43 12.87 143.43 14.58L143.43 14.58Q143.40 15.27 143.40 16.32Q143.40 17.37 143.40 18.81L143.40 18.81Q143.40 19.41 143.72 19.66Q144.03 19.92 144.54 19.92ZM159.54 30.30L159.54 30.30Q159.30 30.30 159.12 30.19Q158.94 30.09 158.94 29.88L158.94 29.88Q158.94 29.40 159.57 29.25L159.57 29.25Q160.71 29.01 161.15 28.63Q161.58 28.26 161.58 27.27L161.58 27.27L161.58 13.83Q161.58 12.81 161.22 12.34Q160.86 11.88 159.78 11.64L159.78 11.64Q159.39 11.55 159.24 11.38Q159.09 11.22 159.09 11.01L159.09 11.01Q159.09 10.83 159.27 10.69Q159.45 10.56 159.75 10.56L159.75 10.56Q160.44 10.56 161.15 10.59Q161.85 10.62 162.53 10.66Q163.20 10.71 163.80 10.71L163.80 10.71Q164.52 10.71 165.08 10.63Q165.63 10.56 166.31 10.48Q166.98 10.41 167.94 10.41L167.94 10.41Q171.60 10.41 173.75 11.95Q175.89 13.50 175.89 16.20L175.89 16.20Q175.89 18.09 175.09 19.68Q174.30 21.27 172.69 22.24Q171.09 23.22 168.63 23.22L168.63 23.22Q167.85 23.22 167.44 22.98Q167.04 22.74 167.04 22.41L167.04 22.41Q167.04 22.20 167.24 22.06Q167.43 21.93 167.58 21.93L167.58 21.93Q167.91 21.93 168.15 22.00Q168.39 22.08 168.81 22.08L168.81 22.08Q170.07 22.08 170.72 20.67Q171.36 19.26 171.36 16.95L171.36 16.95Q171.36 14.19 170.46 12.96Q169.56 11.73 167.94 11.73L167.94 11.73Q167.10 11.73 166.67 12.10Q166.23 12.48 166.23 13.26L166.23 13.26L166.20 27.21Q166.20 28.17 166.71 28.57Q167.22 28.98 168.48 29.25L168.48 29.25Q168.81 29.31 168.97 29.44Q169.14 29.58 169.14 29.85L169.14 29.85Q169.14 30.06 168.99 30.18Q168.84 30.30 168.57 30.30L168.57 30.30Q167.91 30.30 167.06 30.25Q166.20 30.21 165.36 30.18Q164.52 30.15 163.92 30.15L163.92 30.15Q163.29 30.15 162.54 30.18Q161.79 30.21 161.00 30.25Q160.20 30.30 159.54 30.30ZM183.21 30.63L183.21 30.63Q181.92 30.63 180.72 30.33Q179.52 30.03 178.47 29.37L178.47 29.37Q178.29 29.22 178.11 29.04Q177.93 28.86 177.84 28.65L177.84 28.65Q177.54 27.84 177.44 26.67Q177.33 25.50 177.36 24.30L177.36 24.30Q177.36 24.09 177.54 24.00Q177.72 23.91 177.96 23.91L177.96 23.91Q178.26 23.91 178.37 23.98Q178.47 24.06 178.59 24.27L178.59 24.27Q179.25 26.52 180.56 27.90Q181.86 29.28 183.60 29.28L183.60 29.28Q184.56 29.28 185.18 28.84Q185.79 28.41 186.12 27.73Q186.45 27.06 186.45 26.37L186.45 26.37Q186.45 25.41 186.08 24.75Q185.70 24.09 184.95 23.55Q184.20 23.01 183.03 22.38L183.03 22.38Q181.77 21.66 180.60 20.86Q179.43 20.07 178.68 18.93Q177.93 17.79 177.93 16.08L177.93 16.08Q177.93 14.31 178.85 13.02Q179.76 11.73 181.35 11.01Q182.94 10.29 184.92 10.29L184.92 10.29Q186.06 10.29 187.10 10.53Q188.13 10.77 188.76 11.01L188.76 11.01Q189.12 11.16 189.29 11.34Q189.45 11.52 189.57 11.97L189.57 11.97Q189.72 12.60 189.83 13.50Q189.93 14.40 189.93 15.48L189.93 15.48Q189.93 15.87 189.39 15.87L189.39 15.87Q189.12 15.87 188.90 15.73Q188.67 15.60 188.61 15.39L188.61 15.39Q188.10 13.59 187.11 12.66Q186.12 11.73 184.68 11.73L184.68 11.73Q183.78 11.73 183.15 12.03Q182.52 12.33 182.21 12.93Q181.89 13.53 181.89 14.43L181.89 14.43Q181.89 15.15 182.39 15.76Q182.88 16.38 183.81 17.01Q184.74 17.64 185.94 18.36L185.94 18.36Q187.56 19.32 188.52 20.25Q189.48 21.18 189.92 22.21Q190.35 23.25 190.35 24.60L190.35 24.60Q190.35 26.64 189.47 27.99Q188.58 29.34 186.98 29.98Q185.37 30.63 183.21 30.63ZM205.14 30.63L205.14 30.63Q203.85 30.63 202.65 30.33Q201.45 30.03 200.40 29.37L200.40 29.37Q200.22 29.22 200.04 29.04Q199.86 28.86 199.77 28.65L199.77 28.65Q199.47 27.84 199.36 26.67Q199.26 25.50 199.29 24.30L199.29 24.30Q199.29 24.09 199.47 24.00Q199.65 23.91 199.89 23.91L199.89 23.91Q200.19 23.91 200.29 23.98Q200.40 24.06 200.52 24.27L200.52 24.27Q201.18 26.52 202.48 27.90Q203.79 29.28 205.53 29.28L205.53 29.28Q206.49 29.28 207.10 28.84Q207.72 28.41 208.05 27.73Q208.38 27.06 208.38 26.37L208.38 26.37Q208.38 25.41 208.00 24.75Q207.63 24.09 206.88 23.55Q206.13 23.01 204.96 22.38L204.96 22.38Q203.70 21.66 202.53 20.86Q201.36 20.07 200.61 18.93Q199.86 17.79 199.86 16.08L199.86 16.08Q199.86 14.31 200.78 13.02Q201.69 11.73 203.28 11.01Q204.87 10.29 206.85 10.29L206.85 10.29Q207.99 10.29 209.03 10.53Q210.06 10.77 210.69 11.01L210.69 11.01Q211.05 11.16 211.22 11.34Q211.38 11.52 211.50 11.97L211.50 11.97Q211.65 12.60 211.75 13.50Q211.86 14.40 211.86 15.48L211.86 15.48Q211.86 15.87 211.32 15.87L211.32 15.87Q211.05 15.87 210.82 15.73Q210.60 15.60 210.54 15.39L210.54 15.39Q210.03 13.59 209.04 12.66Q208.05 11.73 206.61 11.73L206.61 11.73Q205.71 11.73 205.08 12.03Q204.45 12.33 204.13 12.93Q203.82 13.53 203.82 14.43L203.82 14.43Q203.82 15.15 204.31 15.76Q204.81 16.38 205.74 17.01Q206.67 17.64 207.87 18.36L207.87 18.36Q209.49 19.32 210.45 20.25Q211.41 21.18 211.84 22.21Q212.28 23.25 212.28 24.60L212.28 24.60Q212.28 26.64 211.39 27.99Q210.51 29.34 208.91 29.98Q207.30 30.63 205.14 30.63ZM224.64 30.63L224.64 30.63Q222.57 30.63 220.69 29.92Q218.82 29.22 217.36 27.91Q215.91 26.61 215.08 24.79Q214.26 22.98 214.26 20.76L214.26 20.76Q214.26 18.72 214.93 16.84Q215.61 14.97 216.96 13.50Q218.31 12.03 220.30 11.16Q222.30 10.29 224.91 10.29L224.91 10.29Q227.01 10.29 228.88 10.99Q230.76 11.70 232.20 13.00Q233.64 14.31 234.48 16.13Q235.32 17.94 235.32 20.16L235.32 20.16Q235.32 22.17 234.63 24.06Q233.94 25.95 232.59 27.42Q231.24 28.89 229.24 29.76Q227.25 30.63 224.64 30.63ZM225.18 29.25L225.18 29.25Q226.89 29.25 228.04 28.29Q229.20 27.33 229.77 25.62Q230.34 23.91 230.34 21.69L230.34 21.69Q230.34 19.86 229.99 18.07Q229.65 16.29 228.91 14.85Q228.18 13.41 227.04 12.55Q225.90 11.70 224.34 11.70L224.34 11.70Q222.66 11.70 221.50 12.66Q220.35 13.62 219.78 15.30Q219.21 16.98 219.21 19.20L219.21 19.20Q219.21 21.06 219.57 22.84Q219.93 24.63 220.65 26.07Q221.37 27.51 222.49 28.38Q223.62 29.25 225.18 29.25ZM237.45 30.36L237.45 30.36Q237.15 30.36 236.98 30.22Q236.82 30.09 236.82 29.91L236.82 29.91Q236.82 29.70 237 29.53Q237.18 29.37 237.45 29.28L237.45 29.28Q238.47 29.01 238.91 28.65Q239.34 28.29 239.34 27.36L239.34 27.36L239.34 13.62Q239.34 12.96 239.19 12.60Q239.04 12.24 238.62 12.03Q238.20 11.82 237.39 11.64L237.39 11.64Q236.76 11.49 236.76 11.01L236.76 11.01Q236.76 10.80 236.94 10.68Q237.12 10.56 237.36 10.56L237.36 10.56Q238.05 10.56 238.81 10.59Q239.58 10.62 240.31 10.66Q241.05 10.71 241.65 10.71L241.65 10.71Q242.28 10.71 243.06 10.68Q243.84 10.65 244.66 10.62Q245.49 10.59 246.15 10.59L246.15 10.59Q246.42 10.59 246.56 10.69Q246.69 10.80 246.69 11.01L246.69 11.01Q246.69 11.31 246.53 11.43Q246.36 11.55 246.06 11.64L246.06 11.64Q244.83 11.97 244.40 12.34Q243.96 12.72 243.96 13.62L243.96 13.62L243.96 27.12Q243.96 27.96 244.34 28.32Q244.71 28.68 245.58 28.68L245.58 28.68L248.64 28.68Q249.30 28.68 249.82 28.45Q250.35 28.23 250.77 27.87L250.77 27.87Q251.28 27.39 251.67 26.77Q252.06 26.16 252.36 25.50L252.36 25.50Q252.66 24.90 252.82 24.72Q252.99 24.54 253.17 24.54L253.17 24.54Q253.41 24.54 253.50 24.75Q253.59 24.96 253.59 25.14L253.59 25.14Q253.59 25.20 253.53 25.41Q253.47 25.62 253.47 25.74L253.47 25.74Q253.26 26.61 253.08 27.25Q252.90 27.90 252.79 28.48Q252.69 29.07 252.60 29.79L252.60 29.79Q252.57 30.00 252.47 30.18Q252.36 30.36 252.12 30.36L252.12 30.36Q251.49 30.36 250.29 30.33Q249.09 30.30 247.60 30.28Q246.12 30.27 244.57 30.24Q243.03 30.21 241.71 30.21L241.71 30.21Q241.08 30.21 240.27 30.24Q239.46 30.27 238.69 30.31Q237.93 30.36 237.45 30.36ZM264.96 30.63L264.96 30.63Q262.14 30.63 260.25 29.62Q258.36 28.62 257.41 26.82Q256.47 25.02 256.47 22.62L256.47 22.62L256.47 14.07Q256.47 13.23 256.08 12.54Q255.69 11.85 254.94 11.67L254.94 11.67Q254.10 11.43 254.10 11.01L254.10 11.01Q254.10 10.80 254.32 10.68Q254.55 10.56 254.88 10.56L254.88 10.56Q255.84 10.56 256.86 10.63Q257.88 10.71 258.78 10.71L258.78 10.71Q259.62 10.71 260.81 10.65Q261.99 10.59 262.83 10.59L262.83 10.59Q263.19 10.59 263.41 10.69Q263.64 10.80 263.64 11.04L263.64 11.04Q263.64 11.37 263.19 11.52Q262.74 11.67 262.23 11.91L262.23 11.91Q261.78 12.09 261.45 12.64Q261.12 13.20 261.12 14.22L261.12 14.22L261.12 22.08Q261.12 24.12 261.78 25.44Q262.44 26.76 263.53 27.39Q264.63 28.02 265.98 28.02L265.98 28.02Q268.71 28.02 270.04 26.40Q271.38 24.78 271.38 21.45L271.38 21.45Q271.38 20.67 271.39 19.70Q271.41 18.72 271.41 17.68Q271.41 16.65 271.38 15.72L271.38 15.72Q271.35 14.37 271.19 13.62Q271.02 12.87 270.69 12.45Q270.36 12.03 269.79 11.76L269.79 11.76Q269.46 11.58 269.02 11.44Q268.59 11.31 268.59 11.04L268.59 11.04Q268.59 10.80 268.83 10.71Q269.07 10.62 269.49 10.62L269.49 10.62Q270.57 10.62 271.13 10.65Q271.68 10.68 272.37 10.68L272.37 10.68Q272.94 10.68 273.31 10.65Q273.69 10.62 274.09 10.59Q274.50 10.56 275.07 10.56L275.07 10.56Q275.43 10.56 275.64 10.65Q275.85 10.74 275.85 11.01L275.85 11.01Q275.85 11.40 275.04 11.64L275.04 11.64Q274.05 11.91 273.64 12.55Q273.24 13.20 273.18 14.28L273.18 14.28Q273.09 16.56 273.06 18.46Q273.03 20.37 273.03 22.35L273.03 22.35Q273 24.78 271.94 26.65Q270.87 28.53 269.04 29.58Q267.21 30.63 264.96 30.63ZM282.30 30.30L282.30 30.30Q282.09 30.30 281.85 30.19Q281.61 30.09 281.61 29.88L281.61 29.88Q281.61 29.61 281.82 29.46Q282.03 29.31 282.33 29.25L282.33 29.25Q283.47 29.01 284.00 28.62Q284.52 28.23 284.52 27.27L284.52 27.27L284.52 14.88Q284.52 13.71 284.46 13.15Q284.40 12.60 284.30 12.40Q284.19 12.21 284.04 12.15L284.04 12.15Q283.77 12.00 283.33 11.98Q282.90 11.97 282.63 11.97L282.63 11.97L281.97 11.97Q281.01 11.97 280.16 12.43Q279.30 12.90 278.79 13.59L278.79 13.59Q278.64 13.80 278.36 14.17Q278.07 14.55 277.75 14.83Q277.44 15.12 277.14 15.12L277.14 15.12Q276.90 15.12 276.81 14.95Q276.72 14.79 276.72 14.58L276.72 14.58Q276.72 14.22 276.90 13.83L276.90 13.83Q277.47 12.69 277.74 11.88Q278.01 11.07 278.10 10.02L278.10 10.02Q278.16 9.57 278.37 9.40Q278.58 9.24 278.85 9.24L278.85 9.24Q279.06 9.24 279.30 9.63Q279.54 10.02 279.81 10.26L279.81 10.26Q280.11 10.50 280.81 10.62Q281.52 10.74 281.97 10.74L281.97 10.74L293.25 10.74Q294 10.74 294.52 10.59Q295.05 10.44 295.32 10.29L295.32 10.29Q295.80 10.02 296.08 9.69Q296.37 9.36 296.76 9.36L296.76 9.36Q296.94 9.36 297.01 9.49Q297.09 9.63 297.09 9.87L297.09 9.87Q297.09 9.99 297.07 10.17Q297.06 10.35 297.03 10.50L297.03 10.50Q296.88 11.07 296.73 11.59Q296.58 12.12 296.49 12.60Q296.40 13.08 296.40 13.59L296.40 13.59L296.40 14.19Q296.40 14.67 296.30 14.97Q296.19 15.27 295.89 15.27L295.89 15.27Q295.62 15.27 295.44 14.98Q295.26 14.70 295.05 14.07L295.05 14.07Q294.72 12.99 294.07 12.48Q293.43 11.97 292.11 11.97L292.11 11.97L290.55 11.97Q290.04 11.97 289.73 12.19Q289.41 12.42 289.26 13.09Q289.11 13.77 289.11 15.15L289.11 15.15L289.11 27.24Q289.11 28.14 289.61 28.54Q290.10 28.95 291.27 29.25L291.27 29.25Q291.57 29.34 291.78 29.46Q291.99 29.58 291.99 29.85L291.99 29.85Q291.99 30.06 291.81 30.18Q291.63 30.30 291.36 30.30L291.36 30.30Q290.70 30.30 289.88 30.25Q289.05 30.21 288.23 30.18Q287.40 30.15 286.80 30.15L286.80 30.15Q286.17 30.15 285.38 30.18Q284.58 30.21 283.79 30.25Q282.99 30.30 282.30 30.30ZM298.05 30.30L298.05 30.30Q297.81 30.30 297.63 30.19Q297.45 30.09 297.45 29.88L297.45 29.88Q297.45 29.40 298.08 29.25L298.08 29.25Q299.22 29.01 299.67 28.63Q300.12 28.26 300.12 27.30L300.12 27.30L300.12 13.68Q300.12 12.72 299.73 12.31Q299.34 11.91 298.14 11.64L298.14 11.64Q297.51 11.49 297.51 11.01L297.51 11.01Q297.51 10.80 297.69 10.68Q297.87 10.56 298.11 10.56L298.11 10.56Q298.80 10.56 299.57 10.59Q300.33 10.62 301.07 10.66Q301.80 10.71 302.43 10.71L302.43 10.71Q303.03 10.71 303.80 10.68Q304.56 10.65 305.36 10.62Q306.15 10.59 306.81 10.59L306.81 10.59Q307.08 10.59 307.23 10.69Q307.38 10.80 307.38 11.01L307.38 11.01Q307.38 11.31 307.22 11.43Q307.05 11.55 306.72 11.64L306.72 11.64Q305.52 11.97 305.13 12.37Q304.74 12.78 304.74 13.71L304.74 13.71L304.74 27.27Q304.74 28.14 305.18 28.54Q305.61 28.95 306.78 29.25L306.78 29.25Q307.08 29.34 307.25 29.46Q307.41 29.58 307.41 29.85L307.41 29.85Q307.41 30.06 307.28 30.18Q307.14 30.30 306.87 30.30L306.87 30.30Q306.21 30.30 305.40 30.25Q304.59 30.21 303.81 30.18Q303.03 30.15 302.43 30.15L302.43 30.15Q301.80 30.15 301.05 30.18Q300.30 30.21 299.52 30.25Q298.74 30.30 298.05 30.30ZM319.14 30.63L319.14 30.63Q317.07 30.63 315.20 29.92Q313.32 29.22 311.87 27.91Q310.41 26.61 309.59 24.79Q308.76 22.98 308.76 20.76L308.76 20.76Q308.76 18.72 309.44 16.84Q310.11 14.97 311.46 13.50Q312.81 12.03 314.81 11.16Q316.80 10.29 319.41 10.29L319.41 10.29Q321.51 10.29 323.39 10.99Q325.26 11.70 326.70 13.00Q328.14 14.31 328.98 16.13Q329.82 17.94 329.82 20.16L329.82 20.16Q329.82 22.17 329.13 24.06Q328.44 25.95 327.09 27.42Q325.74 28.89 323.75 29.76Q321.75 30.63 319.14 30.63ZM319.68 29.25L319.68 29.25Q321.39 29.25 322.55 28.29Q323.70 27.33 324.27 25.62Q324.84 23.91 324.84 21.69L324.84 21.69Q324.84 19.86 324.50 18.07Q324.15 16.29 323.42 14.85Q322.68 13.41 321.54 12.55Q320.40 11.70 318.84 11.70L318.84 11.70Q317.16 11.70 316.01 12.66Q314.85 13.62 314.28 15.30Q313.71 16.98 313.71 19.20L313.71 19.20Q313.71 21.06 314.07 22.84Q314.43 24.63 315.15 26.07Q315.87 27.51 317.00 28.38Q318.12 29.25 319.68 29.25ZM351.09 30.78L351.09 30.78Q350.70 30.78 349.83 30.31Q348.96 29.85 348.03 28.68L348.03 28.68Q347.31 27.93 346.53 27.06Q345.75 26.19 344.88 25.26Q344.01 24.33 343.13 23.37Q342.24 22.41 341.37 21.46Q340.50 20.52 339.63 19.59Q338.76 18.66 337.98 17.79Q337.20 16.92 336.48 16.17L336.48 16.17Q336.42 16.05 336.29 15.94Q336.15 15.84 336.09 15.84L336.09 15.84Q335.97 15.84 335.93 16.05Q335.88 16.26 335.88 16.41L335.88 16.41Q335.85 17.79 335.88 19.65Q335.91 21.51 335.96 23.41Q336.00 25.32 336.00 26.88L336.00 26.88Q336.00 27.84 336.60 28.39Q337.20 28.95 338.37 29.25L338.37 29.25Q338.70 29.31 338.96 29.44Q339.21 29.58 339.21 29.85L339.21 29.85Q339.21 30.06 338.97 30.18Q338.73 30.30 338.46 30.30L338.46 30.30Q337.65 30.30 337.14 30.25Q336.63 30.21 336.20 30.19Q335.76 30.18 335.13 30.18L335.13 30.18Q334.47 30.18 333.89 30.21Q333.30 30.24 332.90 30.27Q332.49 30.30 332.34 30.30L332.34 30.30Q332.13 30.30 331.88 30.19Q331.62 30.09 331.62 29.88L331.62 29.88Q331.62 29.61 331.86 29.49Q332.10 29.37 332.40 29.25L332.40 29.25Q333.12 28.98 333.50 28.35Q333.87 27.72 333.93 26.79L333.93 26.79Q334.05 25.68 334.19 23.85Q334.32 22.02 334.44 19.72Q334.56 17.43 334.56 14.97L334.56 14.97Q334.56 13.41 333.77 12.72Q332.97 12.03 331.83 11.61L331.83 11.61Q331.59 11.55 331.29 11.38Q330.99 11.22 330.99 10.95L330.99 10.95Q330.99 10.68 331.23 10.57Q331.47 10.47 331.77 10.47L331.77 10.47Q332.31 10.47 332.99 10.50Q333.66 10.53 334.41 10.54Q335.16 10.56 335.97 10.59Q336.78 10.62 337.59 10.62L337.59 10.62Q337.83 10.62 337.97 10.71Q338.10 10.80 338.22 10.95L338.22 10.95Q338.88 11.70 339.65 12.57Q340.41 13.44 341.25 14.38Q342.09 15.33 342.96 16.30Q343.83 17.28 344.69 18.27Q345.54 19.26 346.37 20.19Q347.19 21.12 347.97 21.99Q348.75 22.86 349.41 23.61L349.41 23.61Q349.50 23.73 349.64 23.86Q349.77 24.00 349.89 24.00L349.89 24.00Q350.13 24.00 350.13 23.55L350.13 23.55Q350.13 22.62 350.15 21.39Q350.16 20.16 350.16 18.78Q350.16 17.40 350.15 16.05Q350.13 14.70 350.07 13.56L350.07 13.56Q350.04 12.75 349.46 12.34Q348.87 11.94 347.85 11.67L347.85 11.67Q347.52 11.61 347.28 11.46Q347.04 11.31 347.04 11.04L347.04 11.04Q347.04 10.83 347.28 10.72Q347.52 10.62 347.79 10.62L347.79 10.62Q348.48 10.62 348.96 10.63Q349.44 10.65 349.83 10.65Q350.22 10.65 350.70 10.65L350.70 10.65Q351.30 10.65 351.72 10.63Q352.14 10.62 352.64 10.59Q353.13 10.56 353.91 10.56L353.91 10.56Q354.27 10.56 354.47 10.68Q354.66 10.80 354.66 11.01L354.66 11.01Q354.66 11.46 353.88 11.61L353.88 11.61Q352.83 11.82 352.38 12.21Q351.93 12.60 351.90 13.47L351.90 13.47Q351.90 14.55 351.89 15.78Q351.87 17.01 351.81 18.30Q351.75 19.59 351.71 20.86Q351.66 22.14 351.63 23.31Q351.60 24.48 351.60 25.47L351.60 25.47Q351.60 26.16 351.69 26.98Q351.78 27.81 351.86 28.48Q351.93 29.16 351.93 29.43L351.93 29.43Q351.93 30.18 351.71 30.48Q351.48 30.78 351.09 30.78ZM361.53 30.63L361.53 30.63Q360.24 30.63 359.04 30.33Q357.84 30.03 356.79 29.37L356.79 29.37Q356.61 29.22 356.43 29.04Q356.25 28.86 356.16 28.65L356.16 28.65Q355.86 27.84 355.76 26.67Q355.65 25.50 355.68 24.30L355.68 24.30Q355.68 24.09 355.86 24.00Q356.04 23.91 356.28 23.91L356.28 23.91Q356.58 23.91 356.69 23.98Q356.79 24.06 356.91 24.27L356.91 24.27Q357.57 26.52 358.88 27.90Q360.18 29.28 361.92 29.28L361.92 29.28Q362.88 29.28 363.50 28.84Q364.11 28.41 364.44 27.73Q364.77 27.06 364.77 26.37L364.77 26.37Q364.77 25.41 364.40 24.75Q364.02 24.09 363.27 23.55Q362.52 23.01 361.35 22.38L361.35 22.38Q360.09 21.66 358.92 20.86Q357.75 20.07 357.00 18.93Q356.25 17.79 356.25 16.08L356.25 16.08Q356.25 14.31 357.17 13.02Q358.08 11.73 359.67 11.01Q361.26 10.29 363.24 10.29L363.24 10.29Q364.38 10.29 365.42 10.53Q366.45 10.77 367.08 11.01L367.08 11.01Q367.44 11.16 367.61 11.34Q367.77 11.52 367.89 11.97L367.89 11.97Q368.04 12.60 368.15 13.50Q368.25 14.40 368.25 15.48L368.25 15.48Q368.25 15.87 367.71 15.87L367.71 15.87Q367.44 15.87 367.22 15.73Q366.99 15.60 366.93 15.39L366.93 15.39Q366.42 13.59 365.43 12.66Q364.44 11.73 363.00 11.73L363.00 11.73Q362.10 11.73 361.47 12.03Q360.84 12.33 360.53 12.93Q360.21 13.53 360.21 14.43L360.21 14.43Q360.21 15.15 360.71 15.76Q361.20 16.38 362.13 17.01Q363.06 17.64 364.26 18.36L364.26 18.36Q365.88 19.32 366.84 20.25Q367.80 21.18 368.24 22.21Q368.67 23.25 368.67 24.60L368.67 24.60Q368.67 26.64 367.79 27.99Q366.90 29.34 365.30 29.98Q363.69 30.63 361.53 30.63Z"
            transform="translate(0, 0)"></path>
    </g>
</svg>